<svg width="917" height="917" viewBox="0 0 917 917" fill="none" xmlns="http://www.w3.org/2000/svg">
<g opacity="0.1">
<circle cx="459.18" cy="458.308" r="139" transform="rotate(-150.782 459.18 458.308)" stroke="url(#paint0_linear)" stroke-width="2"/>
<circle cx="458.5" cy="458.5" r="121.5" transform="rotate(-150.782 458.5 458.5)" stroke="url(#paint1_linear)" stroke-width="2"/>
<circle cx="459.18" cy="458.308" r="104" transform="rotate(-150.782 459.18 458.308)" stroke="url(#paint2_linear)" stroke-width="2"/>
<circle cx="458.5" cy="458.5" r="86.5" transform="rotate(-150.782 458.5 458.5)" stroke="url(#paint3_linear)" stroke-width="2"/>
<circle cx="459.18" cy="458.308" r="69" transform="rotate(-150.782 459.18 458.308)" stroke="url(#paint4_linear)" stroke-width="2"/>
<circle cx="458.5" cy="458.5" r="156.5" transform="rotate(-150.782 458.5 458.5)" stroke="url(#paint5_linear)" stroke-width="2"/>
<circle cx="459.18" cy="458.308" r="174" transform="rotate(-150.782 459.18 458.308)" stroke="url(#paint6_linear)" stroke-width="2"/>
<circle cx="458.5" cy="458.5" r="191.5" transform="rotate(-150.782 458.5 458.5)" stroke="url(#paint7_linear)" stroke-width="2"/>
<circle cx="459.18" cy="458.308" r="209" transform="rotate(-150.782 459.18 458.308)" stroke="url(#paint8_linear)" stroke-width="2"/>
<circle cx="458.5" cy="458.5" r="226.5" transform="rotate(-150.782 458.5 458.5)" stroke="url(#paint9_linear)" stroke-width="2"/>
<circle cx="459.18" cy="458.308" r="244" transform="rotate(-150.782 459.18 458.308)" stroke="url(#paint10_linear)" stroke-width="2"/>
<circle cx="458.5" cy="458.5" r="261.5" transform="rotate(-150.782 458.5 458.5)" stroke="url(#paint11_linear)" stroke-width="2"/>
<circle cx="459.18" cy="458.308" r="279" transform="rotate(-150.782 459.18 458.308)" stroke="url(#paint12_linear)" stroke-width="2"/>
<circle cx="458.5" cy="458.5" r="296.5" transform="rotate(-150.782 458.5 458.5)" stroke="url(#paint13_linear)" stroke-width="2"/>
<circle cx="459.18" cy="458.308" r="314" transform="rotate(-150.782 459.18 458.308)" stroke="url(#paint14_linear)" stroke-width="2"/>
<circle cx="458.5" cy="458.5" r="331.5" transform="rotate(-150.782 458.5 458.5)" stroke="url(#paint15_linear)" stroke-width="2"/>
</g>
<defs>
<linearGradient id="paint0_linear" x1="459.18" y1="318.308" x2="459.18" y2="598.308" gradientUnits="userSpaceOnUse">
<stop stop-color="#9A9A9A" stop-opacity="0"/>
<stop offset="1" stop-color="#8E8E8E"/>
</linearGradient>
<linearGradient id="paint1_linear" x1="458.5" y1="336" x2="458.5" y2="581" gradientUnits="userSpaceOnUse">
<stop stop-color="#9A9A9A" stop-opacity="0"/>
<stop offset="1" stop-color="#8E8E8E"/>
</linearGradient>
<linearGradient id="paint2_linear" x1="459.18" y1="353.308" x2="459.18" y2="563.308" gradientUnits="userSpaceOnUse">
<stop stop-color="#9A9A9A" stop-opacity="0"/>
<stop offset="1" stop-color="#8E8E8E"/>
</linearGradient>
<linearGradient id="paint3_linear" x1="458.5" y1="371" x2="458.5" y2="546" gradientUnits="userSpaceOnUse">
<stop stop-color="#9A9A9A" stop-opacity="0"/>
<stop offset="1" stop-color="#8E8E8E"/>
</linearGradient>
<linearGradient id="paint4_linear" x1="459.18" y1="388.308" x2="459.18" y2="528.308" gradientUnits="userSpaceOnUse">
<stop stop-color="#9A9A9A" stop-opacity="0"/>
<stop offset="1" stop-color="#8E8E8E"/>
</linearGradient>
<linearGradient id="paint5_linear" x1="458.5" y1="301" x2="458.5" y2="616" gradientUnits="userSpaceOnUse">
<stop stop-color="#9A9A9A" stop-opacity="0"/>
<stop offset="1" stop-color="#8E8E8E"/>
</linearGradient>
<linearGradient id="paint6_linear" x1="459.18" y1="283.308" x2="459.18" y2="633.308" gradientUnits="userSpaceOnUse">
<stop stop-color="#9A9A9A" stop-opacity="0"/>
<stop offset="1" stop-color="#8E8E8E"/>
</linearGradient>
<linearGradient id="paint7_linear" x1="458.5" y1="266" x2="458.5" y2="651" gradientUnits="userSpaceOnUse">
<stop stop-color="#9A9A9A" stop-opacity="0"/>
<stop offset="1" stop-color="#8E8E8E"/>
</linearGradient>
<linearGradient id="paint8_linear" x1="459.18" y1="248.308" x2="459.18" y2="668.308" gradientUnits="userSpaceOnUse">
<stop stop-color="#9A9A9A" stop-opacity="0"/>
<stop offset="1" stop-color="#8E8E8E"/>
</linearGradient>
<linearGradient id="paint9_linear" x1="458.5" y1="231" x2="458.5" y2="686" gradientUnits="userSpaceOnUse">
<stop stop-color="#9A9A9A" stop-opacity="0"/>
<stop offset="1" stop-color="#8E8E8E"/>
</linearGradient>
<linearGradient id="paint10_linear" x1="459.18" y1="213.308" x2="459.18" y2="703.308" gradientUnits="userSpaceOnUse">
<stop stop-color="#9A9A9A" stop-opacity="0"/>
<stop offset="1" stop-color="#8E8E8E"/>
</linearGradient>
<linearGradient id="paint11_linear" x1="458.5" y1="196" x2="458.5" y2="721" gradientUnits="userSpaceOnUse">
<stop stop-color="#9A9A9A" stop-opacity="0"/>
<stop offset="1" stop-color="#8E8E8E"/>
</linearGradient>
<linearGradient id="paint12_linear" x1="459.18" y1="178.308" x2="459.18" y2="738.308" gradientUnits="userSpaceOnUse">
<stop stop-color="#9A9A9A" stop-opacity="0"/>
<stop offset="1" stop-color="#8E8E8E"/>
</linearGradient>
<linearGradient id="paint13_linear" x1="458.5" y1="161" x2="458.5" y2="756" gradientUnits="userSpaceOnUse">
<stop stop-color="#9A9A9A" stop-opacity="0"/>
<stop offset="1" stop-color="#8E8E8E"/>
</linearGradient>
<linearGradient id="paint14_linear" x1="459.18" y1="143.308" x2="459.18" y2="773.308" gradientUnits="userSpaceOnUse">
<stop stop-color="#9A9A9A" stop-opacity="0"/>
<stop offset="1" stop-color="#8E8E8E"/>
</linearGradient>
<linearGradient id="paint15_linear" x1="458.5" y1="126" x2="458.5" y2="791" gradientUnits="userSpaceOnUse">
<stop stop-color="#9A9A9A" stop-opacity="0"/>
<stop offset="1" stop-color="#8E8E8E"/>
</linearGradient>
</defs>
</svg>
