<svg width="14" height="14" viewBox="0 0 14 14" fill="none" xmlns="http://www.w3.org/2000/svg">
<path d="M8.01892 6.99021L13.7727 12.719C14.0486 12.9923 14.0486 13.4349 13.7727 13.7076C13.4976 13.9809 13.0506 13.9809 12.7755 13.7076L7.02662 7.98369L1.22457 13.7929C0.949409 14.069 0.502482 14.069 0.227324 13.7929C-0.0478333 13.516 -0.0478333 13.0679 0.227324 12.7917L6.02514 6.98672L0.206368 1.19363C-0.0687894 0.920254 -0.0687894 0.477707 0.206368 0.20503C0.481526 -0.0683432 0.928453 -0.0683432 1.20361 0.20503L7.01744 5.99324L12.7964 0.207123C13.0715 -0.0690403 13.5185 -0.0690403 13.7936 0.207123C14.0688 0.483983 14.0688 0.93211 13.7936 1.20827L8.01892 6.99021Z" fill="#121212"/>
</svg>
