<svg width="917" height="917" viewBox="0 0 917 917" fill="none" xmlns="http://www.w3.org/2000/svg" style="">
<g opacity="0.1">
<path transform="rotate(-150.782 459.18 458.308)" stroke="black" stroke-width="3" d="M320.18,458.308A139,139 0,1,1 598.1800000000001,458.308A139,139 0,1,1 320.18,458.308" class="AUXYtYnc_0"></path>
<path transform="rotate(-150.782 458.5 458.5)" stroke="black" stroke-width="3" d="M337,458.5A121.5,121.5 0,1,1 580,458.5A121.5,121.5 0,1,1 337,458.5" class="AUXYtYnc_1"></path>
<path transform="rotate(-150.782 459.18 458.308)" stroke="black" stroke-width="3" d="M355.18,458.308A104,104 0,1,1 563.1800000000001,458.308A104,104 0,1,1 355.18,458.308" class="AUXYtYnc_2"></path>
<path transform="rotate(-150.782 458.5 458.5)" stroke="black" stroke-width="3" d="M372,458.5A86.5,86.5 0,1,1 545,458.5A86.5,86.5 0,1,1 372,458.5" class="AUXYtYnc_3"></path>
<path transform="rotate(-150.782 459.18 458.308)" stroke="black" stroke-width="3" d="M390.18,458.308A69,69 0,1,1 528.1800000000001,458.308A69,69 0,1,1 390.18,458.308" class="AUXYtYnc_4"></path>
<path transform="rotate(-150.782 458.5 458.5)" stroke="black" stroke-width="3" d="M302,458.5A156.5,156.5 0,1,1 615,458.5A156.5,156.5 0,1,1 302,458.5" class="AUXYtYnc_5"></path>
<path transform="rotate(-150.782 459.18 458.308)" stroke="black" stroke-width="3" d="M285.18,458.308A174,174 0,1,1 633.1800000000001,458.308A174,174 0,1,1 285.18,458.308" class="AUXYtYnc_6"></path>
<path transform="rotate(-150.782 458.5 458.5)" stroke="black" stroke-width="3" d="M267,458.5A191.5,191.5 0,1,1 650,458.5A191.5,191.5 0,1,1 267,458.5" class="AUXYtYnc_7"></path>
<path transform="rotate(-150.782 459.18 458.308)" stroke="black" stroke-width="3" d="M250.18,458.308A209,209 0,1,1 668.1800000000001,458.308A209,209 0,1,1 250.18,458.308" class="AUXYtYnc_8"></path>
<path transform="rotate(-150.782 458.5 458.5)" stroke="black" stroke-width="3" d="M232,458.5A226.5,226.5 0,1,1 685,458.5A226.5,226.5 0,1,1 232,458.5" class="AUXYtYnc_9"></path>
<path transform="rotate(-150.782 459.18 458.308)" stroke="black" stroke-width="3" d="M215.18,458.308A244,244 0,1,1 703.1800000000001,458.308A244,244 0,1,1 215.18,458.308" class="AUXYtYnc_10"></path>
<path transform="rotate(-150.782 458.5 458.5)" stroke="black" stroke-width="3" d="M197,458.5A261.5,261.5 0,1,1 720,458.5A261.5,261.5 0,1,1 197,458.5" class="AUXYtYnc_11"></path>
<path transform="rotate(-150.782 459.18 458.308)" stroke="black" stroke-width="3" d="M180.18,458.308A279,279 0,1,1 738.1800000000001,458.308A279,279 0,1,1 180.18,458.308" class="AUXYtYnc_12"></path>
<path transform="rotate(-150.782 458.5 458.5)" stroke="black" stroke-width="3" d="M162,458.5A296.5,296.5 0,1,1 755,458.5A296.5,296.5 0,1,1 162,458.5" class="AUXYtYnc_13"></path>
<path transform="rotate(-150.782 459.18 458.308)" stroke="black" stroke-width="3" d="M145.18,458.308A314,314 0,1,1 773.1800000000001,458.308A314,314 0,1,1 145.18,458.308" class="AUXYtYnc_14"></path>
<path transform="rotate(-150.782 458.5 458.5)" stroke="black" stroke-width="3" d="M127,458.5A331.5,331.5 0,1,1 790,458.5A331.5,331.5 0,1,1 127,458.5" class="AUXYtYnc_15"></path>
</g>
<!-- <defs>
<linearGradient id="paint0_linear" x1="459.18" y1="318.308" x2="459.18" y2="598.308" gradientUnits="userSpaceOnUse">
<stop stop-color="#9A9A9A" stop-opacity="0"></stop>
<stop offset="1" stop-color="#8E8E8E"></stop>
</linearGradient>
<linearGradient id="paint1_linear" x1="458.5" y1="336" x2="458.5" y2="581" gradientUnits="userSpaceOnUse">
<stop stop-color="#9A9A9A" stop-opacity="0"></stop>
<stop offset="1" stop-color="#8E8E8E"></stop>
</linearGradient>
<linearGradient id="paint2_linear" x1="459.18" y1="353.308" x2="459.18" y2="563.308" gradientUnits="userSpaceOnUse">
<stop stop-color="#9A9A9A" stop-opacity="0"></stop>
<stop offset="1" stop-color="#8E8E8E"></stop>
</linearGradient>
<linearGradient id="paint3_linear" x1="458.5" y1="371" x2="458.5" y2="546" gradientUnits="userSpaceOnUse">
<stop stop-color="#9A9A9A" stop-opacity="0"></stop>
<stop offset="1" stop-color="#8E8E8E"></stop>
</linearGradient>
<linearGradient id="paint4_linear" x1="459.18" y1="388.308" x2="459.18" y2="528.308" gradientUnits="userSpaceOnUse">
<stop stop-color="#9A9A9A" stop-opacity="0"></stop>
<stop offset="1" stop-color="#8E8E8E"></stop>
</linearGradient>
<linearGradient id="paint5_linear" x1="458.5" y1="301" x2="458.5" y2="616" gradientUnits="userSpaceOnUse">
<stop stop-color="#9A9A9A" stop-opacity="0"></stop>
<stop offset="1" stop-color="#8E8E8E"></stop>
</linearGradient>
<linearGradient id="paint6_linear" x1="459.18" y1="283.308" x2="459.18" y2="633.308" gradientUnits="userSpaceOnUse">
<stop stop-color="#9A9A9A" stop-opacity="0"></stop>
<stop offset="1" stop-color="#8E8E8E"></stop>
</linearGradient>
<linearGradient id="paint7_linear" x1="458.5" y1="266" x2="458.5" y2="651" gradientUnits="userSpaceOnUse">
<stop stop-color="#9A9A9A" stop-opacity="0"></stop>
<stop offset="1" stop-color="#8E8E8E"></stop>
</linearGradient>
<linearGradient id="paint8_linear" x1="459.18" y1="248.308" x2="459.18" y2="668.308" gradientUnits="userSpaceOnUse">
<stop stop-color="#9A9A9A" stop-opacity="0"></stop>
<stop offset="1" stop-color="#8E8E8E"></stop>
</linearGradient>
<linearGradient id="paint9_linear" x1="458.5" y1="231" x2="458.5" y2="686" gradientUnits="userSpaceOnUse">
<stop stop-color="#9A9A9A" stop-opacity="0"></stop>
<stop offset="1" stop-color="#8E8E8E"></stop>
</linearGradient>
<linearGradient id="paint10_linear" x1="459.18" y1="213.308" x2="459.18" y2="703.308" gradientUnits="userSpaceOnUse">
<stop stop-color="#9A9A9A" stop-opacity="0"></stop>
<stop offset="1" stop-color="#8E8E8E"></stop>
</linearGradient>
<linearGradient id="paint11_linear" x1="458.5" y1="196" x2="458.5" y2="721" gradientUnits="userSpaceOnUse">
<stop stop-color="#9A9A9A" stop-opacity="0"></stop>
<stop offset="1" stop-color="#8E8E8E"></stop>
</linearGradient>
<linearGradient id="paint12_linear" x1="459.18" y1="178.308" x2="459.18" y2="738.308" gradientUnits="userSpaceOnUse">
<stop stop-color="#9A9A9A" stop-opacity="0"></stop>
<stop offset="1" stop-color="#8E8E8E"></stop>
</linearGradient>
<linearGradient id="paint13_linear" x1="458.5" y1="161" x2="458.5" y2="756" gradientUnits="userSpaceOnUse">
<stop stop-color="#9A9A9A" stop-opacity="0"></stop>
<stop offset="1" stop-color="#8E8E8E"></stop>
</linearGradient>
<linearGradient id="paint14_linear" x1="459.18" y1="143.308" x2="459.18" y2="773.308" gradientUnits="userSpaceOnUse">
<stop stop-color="#9A9A9A" stop-opacity="0"></stop>
<stop offset="1" stop-color="#8E8E8E"></stop>
</linearGradient>
<linearGradient id="paint15_linear" x1="458.5" y1="126" x2="458.5" y2="791" gradientUnits="userSpaceOnUse">
<stop stop-color="#9A9A9A" stop-opacity="0"></stop>
<stop offset="1" stop-color="#8E8E8E"></stop>
</linearGradient>
</defs> -->
<style data-made-with="vivus-instant">

.AUXYtYnc_0{stroke-dasharray:874 876;stroke-dashoffset:875;animation:AUXYtYnc_draw_0 6900ms ease-in-out 0ms infinite,AUXYtYnc_fade 6900ms linear 0ms infinite;}
.AUXYtYnc_1{stroke-dasharray:764 766;stroke-dashoffset:765;animation:AUXYtYnc_draw_1 6900ms ease-in-out 0ms infinite,AUXYtYnc_fade 6900ms linear 0ms infinite;}
.AUXYtYnc_2{stroke-dasharray:654 656;stroke-dashoffset:655;animation:AUXYtYnc_draw_2 6900ms ease-in-out 0ms infinite,AUXYtYnc_fade 6900ms linear 0ms infinite;}
.AUXYtYnc_3{stroke-dasharray:544 546;stroke-dashoffset:545;animation:AUXYtYnc_draw_3 6900ms ease-in-out 0ms infinite,AUXYtYnc_fade 6900ms linear 0ms infinite;}
.AUXYtYnc_4{stroke-dasharray:434 436;stroke-dashoffset:435;animation:AUXYtYnc_draw_4 6900ms ease-in-out 0ms infinite,AUXYtYnc_fade 6900ms linear 0ms infinite;}
.AUXYtYnc_5{stroke-dasharray:984 986;stroke-dashoffset:985;animation:AUXYtYnc_draw_5 6900ms ease-in-out 0ms infinite,AUXYtYnc_fade 6900ms linear 0ms infinite;}
.AUXYtYnc_6{stroke-dasharray:1094 1096;stroke-dashoffset:1095;animation:AUXYtYnc_draw_6 6900ms ease-in-out 0ms infinite,AUXYtYnc_fade 6900ms linear 0ms infinite;}
.AUXYtYnc_7{stroke-dasharray:1204 1206;stroke-dashoffset:1205;animation:AUXYtYnc_draw_7 6900ms ease-in-out 0ms infinite,AUXYtYnc_fade 6900ms linear 0ms infinite;}
.AUXYtYnc_8{stroke-dasharray:1314 1316;stroke-dashoffset:1315;animation:AUXYtYnc_draw_8 6900ms ease-in-out 0ms infinite,AUXYtYnc_fade 6900ms linear 0ms infinite;}
.AUXYtYnc_9{stroke-dasharray:1424 1426;stroke-dashoffset:1425;animation:AUXYtYnc_draw_9 6900ms ease-in-out 0ms infinite,AUXYtYnc_fade 6900ms linear 0ms infinite;}
.AUXYtYnc_10{stroke-dasharray:1534 1536;stroke-dashoffset:1535;animation:AUXYtYnc_draw_10 6900ms ease-in-out 0ms infinite,AUXYtYnc_fade 6900ms linear 0ms infinite;}
.AUXYtYnc_11{stroke-dasharray:1644 1646;stroke-dashoffset:1645;animation:AUXYtYnc_draw_11 6900ms ease-in-out 0ms infinite,AUXYtYnc_fade 6900ms linear 0ms infinite;}
.AUXYtYnc_12{stroke-dasharray:1754 1756;stroke-dashoffset:1755;animation:AUXYtYnc_draw_12 6900ms ease-in-out 0ms infinite,AUXYtYnc_fade 6900ms linear 0ms infinite;}
.AUXYtYnc_13{stroke-dasharray:1864 1866;stroke-dashoffset:1865;animation:AUXYtYnc_draw_13 6900ms ease-in-out 0ms infinite,AUXYtYnc_fade 6900ms linear 0ms infinite;}
.AUXYtYnc_14{stroke-dasharray:1974 1976;stroke-dashoffset:1975;animation:AUXYtYnc_draw_14 6900ms ease-in-out 0ms infinite,AUXYtYnc_fade 6900ms linear 0ms infinite;}
.AUXYtYnc_15{stroke-dasharray:2084 2086;stroke-dashoffset:2085;animation:AUXYtYnc_draw_15 6900ms ease-in-out 0ms infinite,AUXYtYnc_fade 6900ms linear 0ms infinite;}
@keyframes AUXYtYnc_draw{50%{stroke-dashoffset:0;}}
<!-- @keyframes AUXYtYnc_fade{0%{stroke-opacity:1;}50%{stroke-opacity:1;}50%{stroke-opacity:0;}} -->
@keyframes AUXYtYnc_draw_0{11.594202898550725%{stroke-dashoffset: 875}69.56521739130434%{ stroke-dashoffset: 0;}50%{ stroke-dashoffset: 0;}}
@keyframes AUXYtYnc_draw_1{13.52657004830918%{stroke-dashoffset: 765}71.49758454106279%{ stroke-dashoffset: 0;}50%{ stroke-dashoffset: 0;}}
@keyframes AUXYtYnc_draw_2{15.458937198067634%{stroke-dashoffset: 655}73.42995169082126%{ stroke-dashoffset: 0;}50%{ stroke-dashoffset: 0;}}
@keyframes AUXYtYnc_draw_3{17.391304347826086%{stroke-dashoffset: 545}75.36231884057972%{ stroke-dashoffset: 0;}50%{ stroke-dashoffset: 0;}}
@keyframes AUXYtYnc_draw_4{19.323671497584545%{stroke-dashoffset: 435}77.29468599033818%{ stroke-dashoffset: 0;}50%{ stroke-dashoffset: 0;}}
@keyframes AUXYtYnc_draw_5{21.256038647342994%{stroke-dashoffset: 985}79.22705314009663%{ stroke-dashoffset: 0;}50%{ stroke-dashoffset: 0;}}
@keyframes AUXYtYnc_draw_6{23.18840579710145%{stroke-dashoffset: 1095}81.15942028985508%{ stroke-dashoffset: 0;}50%{ stroke-dashoffset: 0;}}
@keyframes AUXYtYnc_draw_7{25.120772946859905%{stroke-dashoffset: 1205}83.09178743961354%{ stroke-dashoffset: 0;}50%{ stroke-dashoffset: 0;}}
@keyframes AUXYtYnc_draw_8{27.05314009661836%{stroke-dashoffset: 1315}85.02415458937197%{ stroke-dashoffset: 0;}50%{ stroke-dashoffset: 0;}}
@keyframes AUXYtYnc_draw_9{28.985507246376812%{stroke-dashoffset: 1425}86.95652173913044%{ stroke-dashoffset: 0;}50%{ stroke-dashoffset: 0;}}
@keyframes AUXYtYnc_draw_10{30.917874396135268%{stroke-dashoffset: 1535}88.8888888888889%{ stroke-dashoffset: 0;}50%{ stroke-dashoffset: 0;}}
@keyframes AUXYtYnc_draw_11{32.850241545893724%{stroke-dashoffset: 1645}90.82125603864735%{ stroke-dashoffset: 0;}50%{ stroke-dashoffset: 0;}}
@keyframes AUXYtYnc_draw_12{34.78260869565217%{stroke-dashoffset: 1755}92.7536231884058%{ stroke-dashoffset: 0;}50%{ stroke-dashoffset: 0;}}
@keyframes AUXYtYnc_draw_13{36.71497584541063%{stroke-dashoffset: 1865}94.68599033816426%{ stroke-dashoffset: 0;}50%{ stroke-dashoffset: 0;}}
@keyframes AUXYtYnc_draw_14{38.64734299516909%{stroke-dashoffset: 1975}96.61835748792271%{ stroke-dashoffset: 0;}50%{ stroke-dashoffset: 0;}}
@keyframes AUXYtYnc_draw_15{40.57971014492754%{stroke-dashoffset: 2085}98.55072463768117%{ stroke-dashoffset: 0;}50%{ stroke-dashoffset: 0;}}</style></svg>
