<svg xmlns="http://www.w3.org/2000/svg" width="607.417" height="536.695" viewBox="0 0 607.417 536.695" style="">
  <g id="Group_46" data-name="Group 46" transform="translate(-692.583 -1628.547)">
    <path id="Path_137" data-name="Path 137" d="M1068.841,747.666l4.795,4.795-4.756,4.756" transform="translate(-130.152 1303.154)" fill="#121212" stroke="#d3d3d3" stroke-miterlimit="10" stroke-width="2" fill-rule="evenodd" class="gwnBpRHc_0"></path>
    <path id="Path_138" data-name="Path 138" d="M1384.824,1684.549l45,65.14v168.139h-89.992V1749.691l45-65.141Z" transform="translate(-232.1 233.575)" fill="#121212" stroke="#d3d3d3" stroke-miterlimit="10" stroke-width="1" fill-rule="evenodd" class="gwnBpRHc_1"></path>
    <path id="Path_139" data-name="Path 139" d="M1025.289,1820.508H804.159v24.287H879.49l-.112,24.286H804.159v124.536h221.13V1820.508Z" transform="translate(66.5 157.788)" fill="#121212" stroke="#d3d3d3" stroke-miterlimit="10" stroke-width="2" fill-rule="evenodd" class="gwnBpRHc_2"></path>
    <path id="Path_140" data-name="Path 140" d="M1025.289,1688.369H804.159l72.468-104.909h221.129l-72.467,104.909Z" transform="translate(66.5 289.926)" fill="#121212" stroke="#d3d3d3" stroke-miterlimit="10" stroke-width="2" fill-rule="evenodd" class="gwnBpRHc_3"></path>
    <path id="Path_141" data-name="Path 141" d="M1150.252,2013.064l4.5,4.5h38.965V1923.49l-5.375-5.375" transform="translate(-126.424 103.378)" fill="#121212" stroke="#3eb1c8" stroke-miterlimit="10" stroke-width="2" fill-rule="evenodd" class="gwnBpRHc_4"></path>
    <path id="Path_142" data-name="Path 142" d="M1108.937,2132.656l4.5,4.5h17.978" transform="translate(-103.394 -16.214)" fill="#121212" stroke="#3eb1c8" stroke-miterlimit="10" stroke-width="2" fill-rule="evenodd" class="gwnBpRHc_5"></path>
    <path id="Path_143" data-name="Path 143" d="M1319.753,1693.339l56.527-81.836h0l56.529,81.835v168.137h15.939V1688.368l-72.468-104.911h0l-72.467,104.911v173.107h15.94V1693.339Z" transform="translate(-212.023 289.928)" fill="#121212" stroke="#d3d3d3" stroke-miterlimit="10" stroke-width="2" fill-rule="evenodd" class="gwnBpRHc_6"></path>
    <path id="Path_144" data-name="Path 144" d="M1566.234,1831.737H1543.17v168.137h23.064V1831.737Z" transform="translate(-345.449 151.528)" fill="#121212" stroke="#d3d3d3" stroke-miterlimit="10" stroke-width="1" fill-rule="evenodd" class="gwnBpRHc_7"></path>
    <path id="Path_145" data-name="Path 145" d="M987.377,2115.023H943.329v-76.717h44.048v76.717Z" transform="translate(-11.078 36.38)" fill="#121212" stroke="#d3d3d3" stroke-miterlimit="10" stroke-width="2" fill-rule="evenodd" class="gwnBpRHc_8"></path>
    <path id="Path_146" data-name="Path 146" d="M997.171,2115.023H960.9v-76.717h36.273v76.717Z" transform="translate(-20.872 36.38)" fill="#121212" stroke="#d3d3d3" stroke-miterlimit="10" stroke-width="1" fill-rule="evenodd" class="gwnBpRHc_9"></path>
    <path id="Path_147" data-name="Path 147" d="M919.7,1899.67H821.73v-24.286H919.7v24.286Z" transform="translate(56.706 127.198)" fill="#121212" stroke="#d3d3d3" stroke-miterlimit="10" stroke-width="2" fill-rule="evenodd" class="gwnBpRHc_10"></path>
    <path id="Path_148" data-name="Path 148" d="M1050.014,2211.654H736.795v12.838h313.219v-12.838Z" transform="translate(104.051 -60.25)" fill="#121212" stroke="#d3d3d3" stroke-miterlimit="10" stroke-width="2" fill-rule="evenodd" class="gwnBpRHc_11"></path>
    <path id="Path_149" data-name="Path 149" d="M919.7,1899.669h-8.519v-14.942H821.727v-9.345h97.867l.107,24.287Z" transform="translate(56.708 127.199)" fill="#121212" stroke="#d3d3d3" stroke-miterlimit="10" stroke-width="1" fill-rule="evenodd" class="gwnBpRHc_12"></path>
    <path id="Path_150" data-name="Path 150" d="M1589.464,2211.652H1444.53v12.839h144.934v-12.839Z" transform="translate(-290.464 -60.249)" fill="#121212" stroke="#d3d3d3" stroke-miterlimit="10" stroke-width="2" fill-rule="evenodd" class="gwnBpRHc_13"></path>
    <path id="Path_151" data-name="Path 151" d="M918.848,1583.46q-36.234,52.454-72.468,104.91h0" transform="translate(42.965 289.926)" fill="#121212" stroke="#d3d3d3" stroke-miterlimit="10" stroke-width="1" fill-rule="evenodd" class="gwnBpRHc_14"></path>
    <path id="Path_152" data-name="Path 152" d="M964.807,1583.46q-36.234,52.454-72.468,104.91h0" transform="translate(17.346 289.926)" fill="#121212" stroke="#d3d3d3" stroke-miterlimit="10" stroke-width="1" fill-rule="evenodd" class="gwnBpRHc_15"></path>
    <path id="Path_153" data-name="Path 153" d="M1010.766,1583.46q-36.234,52.454-72.468,104.91h0" transform="translate(-8.273 289.926)" fill="#121212" stroke="#d3d3d3" stroke-miterlimit="10" stroke-width="1" fill-rule="evenodd" class="gwnBpRHc_16"></path>
    <path id="Path_154" data-name="Path 154" d="M1056.725,1583.46q-36.234,52.454-72.468,104.91h0" transform="translate(-33.893 289.926)" fill="#121212" stroke="#d3d3d3" stroke-miterlimit="10" stroke-width="1" fill-rule="evenodd" class="gwnBpRHc_17"></path>
    <path id="Path_155" data-name="Path 155" d="M1102.684,1583.46q-36.234,52.454-72.468,104.91h0" transform="translate(-59.512 289.926)" fill="#121212" stroke="#d3d3d3" stroke-miterlimit="10" stroke-width="1" fill-rule="evenodd" class="gwnBpRHc_18"></path>
    <path id="Path_156" data-name="Path 156" d="M1148.642,1583.46q-36.234,52.454-72.468,104.91h0" transform="translate(-85.13 289.926)" fill="#121212" stroke="#d3d3d3" stroke-miterlimit="10" stroke-width="1" fill-rule="evenodd" class="gwnBpRHc_19"></path>
    <path id="Path_157" data-name="Path 157" d="M1194.6,1583.46q-36.235,52.454-72.468,104.91h0" transform="translate(-110.749 289.926)" fill="#121212" stroke="#d3d3d3" stroke-miterlimit="10" stroke-width="1" fill-rule="evenodd" class="gwnBpRHc_20"></path>
    <path id="Path_158" data-name="Path 158" d="M1240.56,1583.46q-36.234,52.454-72.468,104.91h0" transform="translate(-136.368 289.926)" fill="#121212" stroke="#d3d3d3" stroke-miterlimit="10" stroke-width="1" fill-rule="evenodd" class="gwnBpRHc_21"></path>
    <path id="Path_159" data-name="Path 159" d="M1286.519,1583.46q-36.234,52.454-72.468,104.91h0" transform="translate(-161.987 289.926)" fill="#121212" stroke="#d3d3d3" stroke-miterlimit="10" stroke-width="1" fill-rule="evenodd" class="gwnBpRHc_22"></path>
    <path id="Path_160" data-name="Path 160" d="M1332.478,1583.46q-36.234,52.454-72.468,104.91h0" transform="translate(-187.606 289.926)" fill="#121212" stroke="#d3d3d3" stroke-miterlimit="10" stroke-width="1" fill-rule="evenodd" class="gwnBpRHc_23"></path>
    <path id="Path_161" data-name="Path 161" d="M1333.238,1611.652l-3.168-9.106-56.63,81.92,3.168,9.108,56.63-81.921Z" transform="translate(-195.093 279.287)" fill="#121212" stroke="#d3d3d3" stroke-miterlimit="10" stroke-width="2" fill-rule="evenodd" class="gwnBpRHc_24"></path>
    <path id="Path_162" data-name="Path 162" d="M1099.71,1787.649l-137.93.049,3.168,9.108,137.93-.05-3.168-9.107Z" transform="translate(-21.363 176.104)" fill="#121212" stroke="#d3d3d3" stroke-miterlimit="10" stroke-width="2" fill-rule="evenodd" class="gwnBpRHc_25"></path>
    <path id="Path_163" data-name="Path 163" d="M1039.228,1602.547h-20.811l-56.63,81.92,117.783.008,20.145-.008,56.63-81.92Z" transform="translate(-21.366 279.287)" fill="#121212" stroke="#d3d3d3" stroke-miterlimit="10" stroke-width="2" fill-rule="evenodd" class="gwnBpRHc_26"></path>
    <path id="Path_164" data-name="Path 164" d="M1156.336,1602.555l.006-.01h-7.327l-.006.008-109.784-.007-20.81,0-.831,1.249-25.315,36.622h-.115l-2.855,4.3-23.21,33.573h-.2l-4.108,6.18h.033l-.035.051,7.33,0,.032-.047,36.193,0-.022.031,7.331,0,.019-.028,36.193,0-.009.013,7.33,0,.007-.01,23.381,0,20.145,0,4.267-6.18h0l21.907-31.69h.088q2.133-3.09,4.267-6.181h-.083l21.906-31.689h.171l4.267-6.18Zm-55.121,6.177-21.906,31.689-21.435,0h-14.758l8.619-12.468,13.287-19.221Zm-79.714-.006,20.767,0H1057.7l-9.009,13.032-12.9,18.657-36.194,0Zm-11.892,69.561-36.193,0,21.907-31.69,36.194,0Zm43.52,0-36.193,0,21.907-31.689h36.193l-8.245,11.927Zm43.52,0h-36.193l9.383-13.572,12.524-18.118,36.193,0Zm26.179-37.87-36.193,0,21.906-31.689,36.194,0Z" transform="translate(-21.364 279.288)" fill="#121212" stroke="#d3d3d3" stroke-miterlimit="10" stroke-width="2" fill-rule="evenodd" class="gwnBpRHc_27"></path>
    <path id="Path_165" data-name="Path 165" d="M1339.829,1845.7h9.146v72.125h4.593V1845.7h39.45v72.125h4.593V1845.7h27.617v72.125h4.593V1749.691l-45-65.14-2.791,4.041,10.984,15.9v88.8h-39.45V1729.8l-4.593,6.649v56.843h-9.146v4.593h9.146v43.225h-9.146v4.592Zm85.4-4.592h-27.617v-43.225h27.617v43.225Zm0-47.818h-27.617v-82.152l27.617,39.981v42.171Zm-32.21,47.818h-39.45v-43.225h39.45v43.225Z" transform="translate(-232.1 233.575)" fill="#121212" stroke="#d3d3d3" stroke-miterlimit="10" stroke-width="1" fill-rule="evenodd" class="gwnBpRHc_28"></path>
    <path id="Rectangle_66" data-name="Rectangle 66" width="38.094" height="94.166" transform="translate(1023.828 2022.276)" fill="#121212" stroke="#3eb1c8" stroke-miterlimit="10" stroke-width="2" d="M0 0 L38.094 0 L38.094 94.166 L0 94.166 Z" class="gwnBpRHc_29"></path>
    <path id="Rectangle_67" data-name="Rectangle 67" width="18.323" height="94.166" transform="translate(1005.289 2022.276)" fill="#121212" stroke="#3eb1c8" stroke-miterlimit="10" stroke-width="2" d="M0 0 L18.323 0 L18.323 94.166 L0 94.166 Z" class="gwnBpRHc_30"></path>
    <path id="Line_230" data-name="Line 230" transform="translate(1005.289 2081.135)" fill="none" stroke="#3eb1c8" stroke-miterlimit="10" stroke-width="2" d="M56.633,0L0,0" class="gwnBpRHc_31"></path>
    <path id="Line_231" data-name="Line 231" transform="translate(1005.289 2059.942)" fill="none" stroke="#3eb1c8" stroke-miterlimit="10" stroke-width="2" d="M56.633,0L0,0" class="gwnBpRHc_32"></path>
    <path id="Path_166" data-name="Path 166" d="M1112.088,2026.269" transform="translate(-105.15 43.089)" fill="#121212" stroke="#d3d3d3" stroke-miterlimit="10" stroke-width="2" class="gwnBpRHc_33"></path>
  </g>
<style data-made-with="vivus-instant">
.gwnBpRHc_0 {
	stroke-dasharray: 14 16;
	stroke-dashoffset: 15;
	animation: gwnBpRHc_draw 2000ms ease-in-out 0ms forwards;
}

.gwnBpRHc_1 {
	stroke-dasharray: 585 587;
	stroke-dashoffset: 586;
	animation: gwnBpRHc_draw 2000ms ease-in-out 30ms forwards;
}

.gwnBpRHc_2 {
	stroke-dasharray: 940 942;
	stroke-dashoffset: 941;
	animation: gwnBpRHc_draw 2000ms ease-in-out 60ms forwards;
}

.gwnBpRHc_3 {
	stroke-dasharray: 698 700;
	stroke-dashoffset: 699;
	animation: gwnBpRHc_draw 2000ms ease-in-out 90ms forwards;
}

.gwnBpRHc_4 {
	stroke-dasharray: 148 150;
	stroke-dashoffset: 149;
	animation: gwnBpRHc_draw 2000ms ease-in-out 121ms forwards;
}

.gwnBpRHc_5 {
	stroke-dasharray: 25 27;
	stroke-dashoffset: 26;
	animation: gwnBpRHc_draw 2000ms ease-in-out 151ms forwards;
}

.gwnBpRHc_6 {
	stroke-dasharray: 1169 1171;
	stroke-dashoffset: 1170;
	animation: gwnBpRHc_draw 2000ms ease-in-out 181ms forwards;
}

.gwnBpRHc_7 {
	stroke-dasharray: 383 385;
	stroke-dashoffset: 384;
	animation: gwnBpRHc_draw 2000ms ease-in-out 212ms forwards;
}

.gwnBpRHc_8 {
	stroke-dasharray: 242 244;
	stroke-dashoffset: 243;
	animation: gwnBpRHc_draw 2000ms ease-in-out 242ms forwards;
}

.gwnBpRHc_9 {
	stroke-dasharray: 226 228;
	stroke-dashoffset: 227;
	animation: gwnBpRHc_draw 2000ms ease-in-out 272ms forwards;
}

.gwnBpRHc_10 {
	stroke-dasharray: 245 247;
	stroke-dashoffset: 246;
	animation: gwnBpRHc_draw 2000ms ease-in-out 303ms forwards;
}

.gwnBpRHc_11 {
	stroke-dasharray: 653 655;
	stroke-dashoffset: 654;
	animation: gwnBpRHc_draw 2000ms ease-in-out 333ms forwards;
}

.gwnBpRHc_12 {
	stroke-dasharray: 245 247;
	stroke-dashoffset: 246;
	animation: gwnBpRHc_draw 2000ms ease-in-out 363ms forwards;
}

.gwnBpRHc_13 {
	stroke-dasharray: 316 318;
	stroke-dashoffset: 317;
	animation: gwnBpRHc_draw 2000ms ease-in-out 393ms forwards;
}

.gwnBpRHc_14 {
	stroke-dasharray: 128 130;
	stroke-dashoffset: 129;
	animation: gwnBpRHc_draw 2000ms ease-in-out 424ms forwards;
}

.gwnBpRHc_15 {
	stroke-dasharray: 128 130;
	stroke-dashoffset: 129;
	animation: gwnBpRHc_draw 2000ms ease-in-out 454ms forwards;
}

.gwnBpRHc_16 {
	stroke-dasharray: 128 130;
	stroke-dashoffset: 129;
	animation: gwnBpRHc_draw 2000ms ease-in-out 484ms forwards;
}

.gwnBpRHc_17 {
	stroke-dasharray: 128 130;
	stroke-dashoffset: 129;
	animation: gwnBpRHc_draw 2000ms ease-in-out 515ms forwards;
}

.gwnBpRHc_18 {
	stroke-dasharray: 128 130;
	stroke-dashoffset: 129;
	animation: gwnBpRHc_draw 2000ms ease-in-out 545ms forwards;
}

.gwnBpRHc_19 {
	stroke-dasharray: 128 130;
	stroke-dashoffset: 129;
	animation: gwnBpRHc_draw 2000ms ease-in-out 575ms forwards;
}

.gwnBpRHc_20 {
	stroke-dasharray: 128 130;
	stroke-dashoffset: 129;
	animation: gwnBpRHc_draw 2000ms ease-in-out 606ms forwards;
}

.gwnBpRHc_21 {
	stroke-dasharray: 128 130;
	stroke-dashoffset: 129;
	animation: gwnBpRHc_draw 2000ms ease-in-out 636ms forwards;
}

.gwnBpRHc_22 {
	stroke-dasharray: 128 130;
	stroke-dashoffset: 129;
	animation: gwnBpRHc_draw 2000ms ease-in-out 666ms forwards;
}

.gwnBpRHc_23 {
	stroke-dasharray: 128 130;
	stroke-dashoffset: 129;
	animation: gwnBpRHc_draw 2000ms ease-in-out 696ms forwards;
}

.gwnBpRHc_24 {
	stroke-dasharray: 219 221;
	stroke-dashoffset: 220;
	animation: gwnBpRHc_draw 2000ms ease-in-out 727ms forwards;
}

.gwnBpRHc_25 {
	stroke-dasharray: 296 298;
	stroke-dashoffset: 297;
	animation: gwnBpRHc_draw 2000ms ease-in-out 757ms forwards;
}

.gwnBpRHc_26 {
	stroke-dasharray: 476 478;
	stroke-dashoffset: 477;
	animation: gwnBpRHc_draw 2000ms ease-in-out 787ms forwards;
}

.gwnBpRHc_27 {
	stroke-dasharray: 1373 1375;
	stroke-dashoffset: 1374;
	animation: gwnBpRHc_draw 2000ms ease-in-out 818ms forwards;
}

.gwnBpRHc_28 {
	stroke-dasharray: 1567 1569;
	stroke-dashoffset: 1568;
	animation: gwnBpRHc_draw 2000ms ease-in-out 848ms forwards;
}

.gwnBpRHc_29 {
	stroke-dasharray: 265 267;
	stroke-dashoffset: 266;
	animation: gwnBpRHc_draw 2000ms ease-in-out 878ms forwards;
}

.gwnBpRHc_30 {
	stroke-dasharray: 225 227;
	stroke-dashoffset: 226;
	animation: gwnBpRHc_draw 2000ms ease-in-out 909ms forwards;
}

.gwnBpRHc_31 {
	stroke-dasharray: 57 59;
	stroke-dashoffset: 58;
	animation: gwnBpRHc_draw 2000ms ease-in-out 939ms forwards;
}

.gwnBpRHc_32 {
	stroke-dasharray: 57 59;
	stroke-dashoffset: 58;
	animation: gwnBpRHc_draw 2000ms ease-in-out 969ms forwards;
}

.gwnBpRHc_33 {
	stroke-dasharray: 0 2;
	stroke-dashoffset: 1;
	animation: gwnBpRHc_draw 2000ms ease-in-out 1000ms forwards;
}

@keyframes gwnBpRHc_draw {
	100% {
		stroke-dashoffset: 0;
	}
}

@keyframes gwnBpRHc_fade {
	0% {
		stroke-opacity: 1;
	}
	94.44444444444444% {
		stroke-opacity: 1;
	}
	100% {
		stroke-opacity: 0;
	}
}</style></svg>
