<svg xmlns="http://www.w3.org/2000/svg" viewBox="0 0 583.18 247.78"><defs><style>.cls-1,.cls-2{fill:#fff;}.cls-2{fill-rule:evenodd;}.cls-3{fill:#44aeca;}</style></defs><title>logo</title><g id="Layer_2" data-name="Layer 2"><g id="Layer_1-2" data-name="Layer 1"><polygon class="cls-1" points="0 115.87 54.4 0 119.14 0.01 108.27 23.17 71.89 23.17 61.9 44.49 96.28 44.49 85.41 67.67 51 67.67 39.27 92.7 75.77 92.7 64.91 115.87 0 115.87"/><path class="cls-1" d="M276.19,38.39c7.15-9.26,14.74-10.42,23-10.37L287.34,53c-2.48-.07-2.92,0-5.44,0-5.16,0-12.15,4.12-15.95,11.22l-24.32,51.67H216.77l40.6-86.5h23.16Z"/><path class="cls-1" d="M335.18,115.87l40.6-86.5h24.87l-40.6,86.5ZM380.3,19.74l7.12-15.15,24.89,0-7.14,15.19Z"/><polygon class="cls-1" points="407.89 29.33 464.69 29.32 455.64 48.56 407.07 96.4 435.62 96.4 426.42 115.99 367.45 115.97 376.9 95.83 424.97 48.67 398.8 48.68 407.89 29.33"/><path class="cls-1" d="M188,76.63l-7.1,15.15c-2.27,4.77-2.11,9.48,3.27,9.5,7.84,0,9.74-5.78,14.74-15.38h24.41c-13,26.24-22.66,32.75-47.41,32.93C155.19,119,149.28,108.57,159,86l13.57-28.72C183,35,198.42,28.05,217.72,28c18.55,0,24.56,14.77,17.48,30.23l-8.29,18.41ZM210.28,61l3.56-7.61c1.95-3.82,3.36-10.34-2.71-10.43-7-.1-10.58,6.9-12.82,11.78L195.38,61Z"/><path class="cls-1" d="M473.22,76.63l-7.11,15.15c-2.26,4.77-2.1,9.48,3.28,9.5,7.83,0,9.73-5.78,14.74-15.38h24.41c-13,26.24-22.66,32.75-47.42,32.93-20.74.14-26.64-10.26-16.93-32.83l13.56-28.72C468.22,35,483.62,28.05,502.91,28c18.56,0,24.57,14.77,17.48,30.23l-8.28,18.41ZM495.48,61,499,53.35c1.95-3.82,3.35-10.34-2.72-10.43-7-.1-10.57,6.9-12.81,11.78L480.58,61Z"/><path class="cls-1" d="M285.77,113.38c-11.46-.13-16.28-10-4.83-35.61l11.25-23.86c12.12-22.8,25.31-26.18,35.57-26.14,6.47,0,12,2,12.16,10.62l4.19-9h23.13l-41.4,88.21c-9.49,20.23-17.29,30.26-44.62,30.46-18.76.12-27.26-11.36-19.71-27.38h23c-2.75,8-2.18,10.28,3.4,10.39,6.28.11,9.71-3.74,12.47-9.3l8.06-16.65C301.34,110.61,293.29,114.19,285.77,113.38ZM304,80.84c-3.38,7.76-6.88,14.46.63,14.23,4.57-.15,8.34-4.94,12.72-13.81l9.78-21c4.31-9.56,4.55-13.69-.58-13.66-4.92.05-8.79,4.87-13.24,13.84Z"/><path class="cls-1" d="M133.21,37.84A28.75,28.75,0,0,1,155,27.64c14.21.09,17.64,12.1,12.13,23.86l-29.78,64.36H112.79l28.12-60.8c1.54-4,3.49-9.77-2.76-9.71-4.43,0-9.39,5.3-11.5,9.8l-28.5,60.71H73.28l40.6-86.51H137Z"/><path class="cls-1" d="M560.16,38.4c7.16-9.25,12.57-9.24,23-10.37L571.31,53c-2.49-.08-2.93,0-5.42,0-5.19,0-12.16,4.13-16,11.22l-24.3,51.67H500.75l40.6-86.49h23.16Z"/><path class="cls-2" d="M546.51,108.49h.89l2,3.89h2.22l-2.24-4.05a2.12,2.12,0,0,0,2.11-2.42c0-2.11-1.35-2.8-3.62-2.79h-3.29v9.28h1.89v-3.89Zm0-1.58v-2.23h1.31c.72,0,1.69.07,1.7,1s-.5,1.21-1.35,1.21Zm9.57.83c0-5.44-3.9-8.6-8.22-8.6s-8.22,3.18-8.2,8.63,3.88,8.6,8.22,8.59,8.21-3.17,8.2-8.62Zm-2.37,0c0,4-2.67,6.64-5.83,6.65v0c-3.24,0-5.86-2.64-5.87-6.61s2.61-6.6,5.85-6.61,5.84,2.63,5.85,6.59Z"/><path class="cls-3" d="M103.28,209a1.61,1.61,0,0,1,1.53.7,1.74,1.74,0,0,1,0,1.66L99.51,222.5h10.71l5.43-11.56a3.23,3.23,0,0,1,1.26-1.53,4.05,4.05,0,0,1,2-.41h9.25a1.63,1.63,0,0,1,1.54.7,1.76,1.76,0,0,1,0,1.67l-15.76,33.72a3.33,3.33,0,0,1-1.26,1.53,4,4,0,0,1-2,.4H101.4a1.63,1.63,0,0,1-1.54-.69,1.76,1.76,0,0,1,0-1.67L105.27,233H94.62L89,245.09a3.28,3.28,0,0,1-1.27,1.53,4,4,0,0,1-2,.4H76.55a1.62,1.62,0,0,1-1.53-.69,1.79,1.79,0,0,1,0-1.67L90.8,210.88a3.28,3.28,0,0,1,1.27-1.53,4,4,0,0,1,2-.4Z"/><path class="cls-3" d="M156.25,208.19a26.09,26.09,0,0,1,6.51.76,15.66,15.66,0,0,1,5,2.18,10.23,10.23,0,0,1,3.2,3.49,9.7,9.7,0,0,1,1.12,4.71q0,4.18-2.85,10.27a37.79,37.79,0,0,1-5,8.2,25.74,25.74,0,0,1-14.09,8.93,38.7,38.7,0,0,1-9.3,1.05,25.61,25.61,0,0,1-6.48-.76,15.17,15.17,0,0,1-5-2.17,10.26,10.26,0,0,1-3.17-3.47,9.53,9.53,0,0,1-1.13-4.68q0-4.24,2.85-10.33a41.18,41.18,0,0,1,5.05-8.31,25.32,25.32,0,0,1,6.3-5.64,25.84,25.84,0,0,1,7.69-3.2A39.29,39.29,0,0,1,156.25,208.19Zm-11.77,29.15a11.65,11.65,0,0,0,3.33-.43,7.45,7.45,0,0,0,2.71-1.48,12.31,12.31,0,0,0,2.4-2.76,35.58,35.58,0,0,0,2.36-4.36c1.33-2.87,2-5,2-6.35a2.84,2.84,0,0,0-1.21-2.47,5.93,5.93,0,0,0-3.46-.86,11.67,11.67,0,0,0-3.34.43,7.6,7.6,0,0,0-2.71,1.48,12.13,12.13,0,0,0-2.4,2.77,32.68,32.68,0,0,0-2.31,4.35q-2,4.2-2,6.4a2.8,2.8,0,0,0,1.18,2.45A5.94,5.94,0,0,0,144.48,237.34Z"/><path class="cls-3" d="M196.48,209a2.18,2.18,0,0,1,1.53.4,1.86,1.86,0,0,1,.51,1.05l2.37,11.67h.32l13.56-12a5.67,5.67,0,0,1,1.29-.89,4.09,4.09,0,0,1,1.61-.24h11.08q1.23,0,1.56.72a1.92,1.92,0,0,1-.11,1.64l-15.76,33.78a3.33,3.33,0,0,1-1.26,1.53,4.06,4.06,0,0,1-2,.4H202a1.65,1.65,0,0,1-1.54-.69,1.79,1.79,0,0,1,0-1.67l8.23-17.48h-.16l-13,10.76a4.32,4.32,0,0,1-.84.61,2.33,2.33,0,0,1-1.1.19,1.21,1.21,0,0,1-.91-.29,1.65,1.65,0,0,1-.38-.73l-2.63-10.38h-.16l-8.29,17.75a3.33,3.33,0,0,1-1.26,1.53,4.06,4.06,0,0,1-2,.4h-9.2a1.62,1.62,0,0,1-1.53-.69,1.79,1.79,0,0,1,0-1.67L183.14,211a3.54,3.54,0,0,1,1.27-1.56,3.87,3.87,0,0,1,2.07-.48Z"/><path class="cls-3" d="M268.49,209a1.37,1.37,0,0,1,1.4,2.15l-3,6.18a2.4,2.4,0,0,1-1,1.19,4,4,0,0,1-1.64.27H247.14L245,223.2h15.28a1.56,1.56,0,0,1,1.45.62,1.58,1.58,0,0,1,0,1.53l-2.53,5.54a2.29,2.29,0,0,1-1,1.18,3.89,3.89,0,0,1-1.64.27H240.79l-2.25,4.9h17a1.56,1.56,0,0,1,1.45.61,1.6,1.6,0,0,1-.05,1.54l-2.9,6.18a2.36,2.36,0,0,1-1,1.19,4,4,0,0,1-1.64.26h-29a1.62,1.62,0,0,1-1.53-.69,1.76,1.76,0,0,1,0-1.67l15.75-33.78a3.28,3.28,0,0,1,1.27-1.53,4,4,0,0,1,2-.4Z"/><path class="cls-3" d="M293.82,209a36.12,36.12,0,0,1,6.89.56,13.59,13.59,0,0,1,4.49,1.64,6.23,6.23,0,0,1,2.42,2.72,9.21,9.21,0,0,1,.72,3.74,16.62,16.62,0,0,1-1.56,6.34,23.58,23.58,0,0,1-3.22,5.57,14.5,14.5,0,0,1-4.47,3.71,20.61,20.61,0,0,1-6.21,2.07,47.91,47.91,0,0,1-8.41.65h-9.85l-4.46,9.57a2.67,2.67,0,0,1-1,1.18,3.28,3.28,0,0,1-1.64.32h-5.27a1.16,1.16,0,0,1-1.13-.64,1.4,1.4,0,0,1,0-1.29l16.19-34.64a2.73,2.73,0,0,1,1-1.18A3.4,3.4,0,0,1,280,209ZM277.9,229h8a33.79,33.79,0,0,0,4.58-.27,11.57,11.57,0,0,0,3.36-.95,7.15,7.15,0,0,0,2.42-1.82,12.32,12.32,0,0,0,1.8-3,13.08,13.08,0,0,0,.67-1.8,5.46,5.46,0,0,0,.24-1.48,2.93,2.93,0,0,0-1.83-2.85,14.21,14.21,0,0,0-5.7-.86H284Z"/><path class="cls-3" d="M338.41,208.3q7.63,0,11.42,2.91a9.21,9.21,0,0,1,3.8,7.69,19.58,19.58,0,0,1-.62,4.57,32,32,0,0,1-2,5.59,44.56,44.56,0,0,1-4.86,8.37,26.18,26.18,0,0,1-5.95,5.78,24.27,24.27,0,0,1-7.29,3.36,33.73,33.73,0,0,1-8.9,1.1,25.32,25.32,0,0,1-6.66-.78,14,14,0,0,1-4.76-2.2,9.28,9.28,0,0,1-2.88-3.39,9.73,9.73,0,0,1-1-4.39,25.52,25.52,0,0,1,2.69-10.21,42.24,42.24,0,0,1,4.87-8.31,25.9,25.9,0,0,1,5.94-5.73,22.8,22.8,0,0,1,7.29-3.31A35.05,35.05,0,0,1,338.41,208.3Zm-12.75,32.27a18.39,18.39,0,0,0,5.3-.7,13.67,13.67,0,0,0,4.3-2.15,16.41,16.41,0,0,0,3.6-3.76,35.61,35.61,0,0,0,3.15-5.54q2.21-4.74,2.2-7.53a4.77,4.77,0,0,0-1.93-4,9.47,9.47,0,0,0-5.7-1.45,18.74,18.74,0,0,0-5.3.7,13.52,13.52,0,0,0-4.27,2.15,16.3,16.3,0,0,0-3.55,3.77,36.46,36.46,0,0,0-3.12,5.54c-1.48,3.15-2.21,5.68-2.21,7.58a4.75,4.75,0,0,0,1.88,4A9.32,9.32,0,0,0,325.66,240.57Z"/><path class="cls-3" d="M370.73,209c1.25,0,1.79.59,1.61,1.77L368,238.53h.43L391.65,210a2.9,2.9,0,0,1,1-.81,3.11,3.11,0,0,1,1.24-.21h6.45a1.67,1.67,0,0,1,1.24.43,1.18,1.18,0,0,1,.32,1.07L398,238.63h.43L420.64,210a2.71,2.71,0,0,1,1-.83,2.91,2.91,0,0,1,1.15-.19h6a.84.84,0,0,1,.89.59,1.3,1.3,0,0,1-.35,1.24L402,245.68a3.46,3.46,0,0,1-1.19,1A4.12,4.12,0,0,1,399,247h-7.85a1.65,1.65,0,0,1-1.29-.53,1.42,1.42,0,0,1-.37-1.24l3.76-25.81h-.43l-20.92,26.24a3.43,3.43,0,0,1-1.18,1,4.18,4.18,0,0,1-1.83.34h-8.5a1.63,1.63,0,0,1-1.29-.53,1.46,1.46,0,0,1-.38-1.24l5-34.64a1.76,1.76,0,0,1,1.93-1.66Z"/><path class="cls-3" d="M464.52,209a1.15,1.15,0,0,1,1.13.64,1.34,1.34,0,0,1,0,1.29L464,214.43a2.71,2.71,0,0,1-1,1.19,3.42,3.42,0,0,1-1.64.32H442.2l-3.92,8.39H456a1.16,1.16,0,0,1,1.13.64,1.42,1.42,0,0,1,0,1.3l-1.56,3.44a2.67,2.67,0,0,1-1,1.18,3.28,3.28,0,0,1-1.64.32H435.05L430.91,240h19.31a1.16,1.16,0,0,1,1.13.65,1.4,1.4,0,0,1,0,1.29l-1.67,3.55a2.73,2.73,0,0,1-1,1.18A3.35,3.35,0,0,1,447,247H420.48a1.15,1.15,0,0,1-1.13-.64,1.34,1.34,0,0,1,0-1.29l16.19-34.64a2.72,2.72,0,0,1,1-1.18,3.42,3.42,0,0,1,1.64-.32Z"/><path class="cls-3" d="M491.41,209q7.43,0,10.76,2.2a6.83,6.83,0,0,1,3.33,6,13.25,13.25,0,0,1-.37,2.93,17.47,17.47,0,0,1-1.08,3.2,25.56,25.56,0,0,1-2.5,4.52,14.81,14.81,0,0,1-3.2,3.31,16.28,16.28,0,0,1-4.17,2.23,26,26,0,0,1-5.3,1.29l4.25,10.22a1.84,1.84,0,0,1,0,1.59,1.43,1.43,0,0,1-1.37.61h-5.86a1.65,1.65,0,0,1-1.78-1.13L479.8,235h-7.91L467,245.52a2.6,2.6,0,0,1-1,1.18,3.31,3.31,0,0,1-1.64.32h-5.27a1.16,1.16,0,0,1-1.13-.64,1.4,1.4,0,0,1,0-1.29l16.19-34.64a2.79,2.79,0,0,1,1-1.18,3.45,3.45,0,0,1,1.64-.32ZM475.06,228.2h8.5a24.86,24.86,0,0,0,4.54-.35,11.78,11.78,0,0,0,3.29-1,7.2,7.2,0,0,0,2.28-1.77,10.4,10.4,0,0,0,1.56-2.53,8.64,8.64,0,0,0,.86-3.06c0-2.34-2.6-3.5-7.8-3.5h-7.47Z"/></g></g></svg>