<svg xmlns="http://www.w3.org/2000/svg" width="189" height="42.456" viewBox="0 0 189 42.456"><g transform="translate(-107.564 -217.962)"><g transform="translate(107.564 217.962)"><g transform="translate(0)"><path d="M107.564,246.178l13.247-28.216,15.765,0L133.93,223.6h-8.86l-2.432,5.191h8.372l-2.647,5.645h-8.379l-2.858,6.1h8.888l-2.644,5.642Z" transform="translate(-107.564 -217.962)" fill="#d3d3d3"/><path d="M354.875,250.582a6.157,6.157,0,0,1,5.606-2.524l-2.891,6.072c-.6-.017-.711,0-1.324,0a4.939,4.939,0,0,0-3.883,2.733l-5.924,12.582H340.4l9.888-21.065h5.64Z" transform="translate(-287.618 -241.235)" fill="#d3d3d3"/><path d="M467.6,249.977l9.888-21.065h6.056l-9.887,21.065Zm10.988-23.409,1.733-3.69,6.061,0-1.737,3.7Z" transform="translate(-385.976 -221.761)" fill="#d3d3d3"/><path d="M512.112,249.458l13.832,0-2.2,4.685-11.829,11.65h6.954l-2.242,4.771-14.359,0,2.3-4.9,11.7-11.485-6.372,0Z" transform="translate(-412.783 -242.315)" fill="#d3d3d3"/><path d="M281.634,259.871l-1.731,3.688c-.552,1.163-.513,2.309.8,2.313,1.908,0,2.37-1.408,3.588-3.744h5.946c-3.155,6.389-5.519,7.974-11.546,8.017-5.051.034-6.49-2.5-4.124-8l3.3-6.994c2.549-5.417,6.3-7.117,11-7.132,4.517-.007,5.981,3.6,4.256,7.363l-2.017,4.482Zm5.421-3.817.866-1.853c.476-.93.818-2.518-.66-2.542-1.709-.024-2.577,1.681-3.122,2.87l-.713,1.522Z" transform="translate(-235.847 -241.209)" fill="#d3d3d3"/><path d="M587.982,259.871l-1.732,3.688c-.551,1.163-.512,2.309.8,2.313,1.908,0,2.37-1.408,3.589-3.744h5.945c-3.154,6.389-5.518,7.974-11.547,8.017-5.05.034-6.488-2.5-4.122-8l3.3-6.994c2.55-5.417,6.3-7.117,11-7.132,4.518-.007,5.982,3.6,4.255,7.363l-2.016,4.482Zm5.421-3.817.866-1.853c.476-.93.817-2.518-.661-2.542-1.708-.024-2.575,1.681-3.121,2.87l-.714,1.522Z" transform="translate(-472.744 -241.209)" fill="#d3d3d3"/><path d="M392.093,268.641c-2.789-.032-3.963-2.447-1.174-8.672l2.738-5.811c2.953-5.553,6.165-6.376,8.663-6.365,1.576.005,2.921.479,2.961,2.584l1.019-2.2,5.634,0L401.851,269.66c-2.309,4.927-4.209,7.369-10.864,7.418-4.569.029-6.64-2.766-4.8-6.668h5.6c-.67,1.949-.531,2.505.827,2.531,1.53.025,2.366-.912,3.039-2.264l1.962-4.056A8.033,8.033,0,0,1,392.093,268.641Zm4.431-7.925c-.822,1.891-1.676,3.522.153,3.466,1.113-.037,2.031-1.2,3.1-3.364l2.382-5.107c1.049-2.329,1.109-3.335-.14-3.328-1.2.013-2.142,1.186-3.224,3.37Z" transform="translate(-322.504 -241.03)" fill="#d3d3d3"/><g transform="translate(17.846 6.731)"><path d="M200.874,250.134a7.01,7.01,0,0,1,5.309-2.483c3.46.021,4.3,2.948,2.954,5.811l-7.25,15.672-5.985,0,6.849-14.806c.375-.978.851-2.379-.672-2.364-1.08.008-2.288,1.292-2.8,2.386l-6.94,14.784h-6.056l9.887-21.067h5.639Z" transform="translate(-186.281 -247.651)" fill="#d3d3d3"/></g><path d="M659.919,250.6c1.744-2.253,3.06-2.248,5.605-2.524l-2.89,6.072c-.605-.019-.714,0-1.319,0a4.945,4.945,0,0,0-3.891,2.732l-5.92,12.582h-6.052l9.886-21.063h5.639Z" transform="translate(-523.51 -241.245)" fill="#d3d3d3"/></g><path d="M688.912,326.728h.215l.5.948h.542l-.548-.988a.516.516,0,0,0,.514-.588c0-.516-.328-.682-.882-.68h-.8l0,2.259.46,0,0-.948Zm0-.383V325.8h.321c.175,0,.41.016.413.249,0,.249-.122.295-.328.294Zm2.331.2a2,2,0,1,0-2,2.1,1.981,1.981,0,0,0,2-2.1Zm-.576,0a1.492,1.492,0,0,1-1.419,1.618v-.005a1.621,1.621,0,1,1,1.419-1.613Z" transform="translate(-555.826 -300.31)" fill="#d3d3d3" fill-rule="evenodd"/></g><g transform="translate(183.341 250.012)"><path d="M449.3,360.207a.4.4,0,0,1,.4.622l-1.386,2.941h2.813l1.428-3.04a.791.791,0,0,1,.848-.509h2.432a.4.4,0,0,1,.4.622l-4.142,8.865a.792.792,0,0,1-.849.509H448.8a.4.4,0,0,1-.4-.622l1.414-3.054h-2.8l-1.47,3.167a.791.791,0,0,1-.848.509h-2.432a.4.4,0,0,1-.4-.622l4.143-8.879a.791.791,0,0,1,.848-.509Z" transform="translate(-441.813 -360.009)" fill="#2ba3bc"/><path d="M512.431,362.26a6.636,6.636,0,0,1-.749,2.7,7.445,7.445,0,0,1-7.465,4.779c-2.5,0-4.143-1.074-4.143-2.912a6.692,6.692,0,0,1,.749-2.715c1.583-3.407,3.888-4.779,7.451-4.779C510.791,359.334,512.431,360.408,512.431,362.26Zm-4.411,2.361a4.551,4.551,0,0,0,.523-1.668c0-.566-.438-.877-1.23-.877-1.315,0-1.979.537-2.828,2.375a4.41,4.41,0,0,0-.523,1.682c0,.565.438.862,1.216.862C506.493,367,507.157,366.46,508.02,364.621Z" transform="translate(-486.866 -359.334)" fill="#2ba3bc"/><path d="M556.6,360.207c.4,0,.495.156.537.382l.622,3.068h.085l3.563-3.153a.918.918,0,0,1,.764-.3h2.913c.424,0,.523.311.381.622l-4.142,8.879a.792.792,0,0,1-.849.509h-2.418a.4.4,0,0,1-.4-.622L559.825,365h-.042l-3.407,2.827a.652.652,0,0,1-.509.212.307.307,0,0,1-.339-.269l-.693-2.729h-.043l-2.177,4.666a.792.792,0,0,1-.849.509h-2.417a.4.4,0,0,1-.4-.622l4.143-8.85a.849.849,0,0,1,.876-.537Z" transform="translate(-524.617 -360.009)" fill="#2ba3bc"/><path d="M623.516,360.207c.368,0,.523.24.368.565l-.778,1.626c-.141.311-.325.382-.693.382H617.9l-.552,1.173h4.015c.367,0,.523.241.367.566l-.665,1.456c-.141.311-.325.382-.693.382h-4.142l-.594,1.287h4.468c.367,0,.523.24.367.565l-.763,1.626c-.141.311-.325.382-.693.382H611.4a.4.4,0,0,1-.4-.622l4.142-8.879a.792.792,0,0,1,.849-.509Z" transform="translate(-572.601 -360.009)" fill="#2ba3bc"/><path d="M666.312,360.207c2.87,0,3.817.792,3.817,2.276a4.314,4.314,0,0,1-.41,1.668c-.961,2.291-2.474,3.153-5.867,3.153h-2.587l-1.173,2.516a.632.632,0,0,1-.693.4h-1.386a.339.339,0,0,1-.3-.509l4.256-9.1a.632.632,0,0,1,.693-.4Zm-4.185,5.259h2.093c1.852,0,2.644-.311,3.2-1.583a2.51,2.51,0,0,0,.24-.862c0-.693-.622-.976-1.979-.976h-1.951Z" transform="translate(-608.737 -360.009)" fill="#2ba3bc"/><path d="M724.853,362.243a6.653,6.653,0,0,1-.693,2.672c-1.555,3.393-3.662,4.892-7.1,4.892-2.672,0-4.015-1.145-4.015-2.827a6.713,6.713,0,0,1,.707-2.686c1.541-3.393,3.662-4.835,7.1-4.835C723.538,359.458,724.853,360.561,724.853,362.243Zm-3.054,2.5a5.027,5.027,0,0,0,.58-1.979c0-.891-.693-1.442-2.008-1.442-2.064,0-3.223.933-4.27,3.2a5.08,5.08,0,0,0-.58,1.993c0,.891.664,1.428,1.979,1.428C719.566,367.941,720.739,367.008,721.8,364.746Z" transform="translate(-651.557 -359.43)" fill="#2ba3bc"/><path d="M774.142,360.207c.325,0,.467.17.424.467l-1.131,7.309h.113l6.094-7.507a.672.672,0,0,1,.58-.269h1.7c.283,0,.438.17.41.4l-1.018,7.408h.113l5.839-7.536a.613.613,0,0,1,.565-.269H789.4c.241,0,.325.254.141.481l-7.182,9.176a.888.888,0,0,1-.792.353H779.5a.422.422,0,0,1-.438-.466l.99-6.787h-.113l-5.5,6.9a.888.888,0,0,1-.792.353h-2.234a.422.422,0,0,1-.438-.466l1.315-9.105a.485.485,0,0,1,.509-.438Z" transform="translate(-696.349 -360.009)" fill="#2ba3bc"/><path d="M853.067,360.207a.339.339,0,0,1,.3.509l-.438.933a.632.632,0,0,1-.693.4H847.2l-1.032,2.206h4.665a.339.339,0,0,1,.3.509l-.41.9a.632.632,0,0,1-.693.4h-4.708l-1.089,2.319h5.076a.339.339,0,0,1,.3.509l-.438.933a.632.632,0,0,1-.693.4h-6.984a.339.339,0,0,1-.3-.509l4.256-9.1a.632.632,0,0,1,.693-.4Z" transform="translate(-750.617 -360.009)" fill="#2ba3bc"/><path d="M894.762,360.207c2.6,0,3.7.82,3.7,2.149a4.355,4.355,0,0,1-.382,1.612,4.529,4.529,0,0,1-3.987,2.983l1.117,2.686c.127.339,0,.579-.353.579H893.32a.419.419,0,0,1-.467-.3l-1.145-2.87H889.63l-1.287,2.771a.632.632,0,0,1-.693.4h-1.386a.339.339,0,0,1-.3-.509l4.256-9.1a.632.632,0,0,1,.693-.4Zm-4.3,5.061H892.7c1.852,0,2.615-.481,3.068-1.5a2.2,2.2,0,0,0,.226-.806c0-.608-.693-.919-2.05-.919h-1.965Z" transform="translate(-785.243 -360.009)" fill="#2ba3bc"/></g></g></svg>