<svg width="189" height="257" viewBox="0 0 189 257" fill="none" xmlns="http://www.w3.org/2000/svg">
<g clip-path="url(#clip0)">
<path d="M0 214.943L17.6302 178L38.6115 178.003L35.0887 185.387H23.2985L20.0609 192.185H31.2029L27.6801 199.575H16.5283L12.7268 207.556H24.5559L21.0364 214.943H0Z" fill="white"/>
<path d="M89.5091 190.24C91.8263 187.288 94.2861 186.918 96.9631 186.934L93.1227 194.898C92.3189 194.876 92.1763 194.898 91.3596 194.898C89.6874 194.898 87.422 196.212 86.1905 198.475L78.3087 214.949H70.252L83.4098 187.37H90.9156L89.5091 190.24Z" fill="white"/>
<path d="M108.627 214.943L121.785 187.364H129.845L116.687 214.943H108.627ZM123.25 184.294L125.557 179.463H133.624L131.31 184.306L123.25 184.294Z" fill="white"/>
<path d="M132.191 187.351L150.599 187.348L147.666 193.482L131.925 208.735H141.178L138.196 214.981L119.085 214.975L122.148 208.554L137.726 193.518L129.245 193.521L132.191 187.351Z" fill="white"/>
<path d="M60.9276 202.432L58.6266 207.262C57.8909 208.783 57.9427 210.285 59.6863 210.291C62.2271 210.291 62.8429 208.448 64.4633 205.388H72.3743C68.1612 213.754 65.0305 215.829 57.0094 215.887C50.2943 215.941 48.379 212.616 51.5291 205.42L55.9269 196.263C59.3071 189.159 64.3045 186.943 70.5594 186.927C76.5712 186.927 78.5189 191.636 76.2244 196.566L73.5377 202.435L60.9276 202.432ZM68.1482 197.449L69.3019 195.022C69.9339 193.804 70.3909 191.726 68.4237 191.697C66.1551 191.665 64.9948 193.897 64.2689 195.453L63.3193 197.449H68.1482Z" fill="white"/>
<path d="M153.363 202.432L151.059 207.262C150.327 208.783 150.379 210.285 152.122 210.291C154.66 210.291 155.275 208.448 156.899 205.388H164.81C160.597 213.754 157.466 215.829 149.442 215.887C142.72 215.931 140.808 212.616 143.955 205.42L148.35 196.263C151.743 189.159 156.734 186.943 162.985 186.927C169 186.927 170.948 191.636 168.65 196.566L165.967 202.435L153.363 202.432ZM160.578 197.449L161.718 195.01C162.35 193.792 162.804 191.713 160.837 191.684C158.568 191.652 157.411 193.884 156.685 195.44L155.749 197.449H160.578Z" fill="white"/>
<path d="M92.614 214.149C88.9 214.108 87.3379 210.961 91.0486 202.796L94.6946 195.188C98.6225 187.919 102.897 186.841 106.222 186.854C108.319 186.854 110.111 187.492 110.163 190.24L111.521 187.37H119.017L105.6 215.495C102.525 221.945 99.9966 225.142 91.1394 225.206C85.0596 225.244 82.3048 221.584 84.7517 216.477H92.2056C91.3144 219.027 91.4991 219.754 93.3075 219.789C95.3428 219.824 96.4544 218.597 97.3489 216.824L99.961 211.516C97.66 213.266 95.0511 214.407 92.614 214.149ZM98.5221 203.774C97.4266 206.248 96.2923 208.385 98.7262 208.311C100.207 208.264 101.429 206.736 102.849 203.908L106.018 197.213C107.415 194.165 107.493 192.848 105.83 192.858C104.236 192.874 102.981 194.41 101.539 197.27L98.5221 203.774Z" fill="white"/>
<path d="M43.1715 190.065C44.0399 189.053 45.1209 188.238 46.34 187.677C47.559 187.115 48.8873 186.821 50.2333 186.812C54.8385 186.841 55.9501 190.67 54.1644 194.42L44.5132 214.94H36.5536L45.6669 195.555C46.166 194.28 46.798 192.44 44.7724 192.459C43.3367 192.459 41.7293 194.149 41.0455 195.584L31.809 214.94H23.749L36.9069 187.358H44.3997L43.1715 190.065Z" fill="white"/>
<path d="M181.54 190.243C183.86 187.294 185.613 187.297 188.993 186.937L185.153 194.898C184.346 194.873 184.204 194.898 183.397 194.898C181.715 194.898 179.456 196.215 178.211 198.475L170.336 214.949H162.286L175.443 187.374H182.949L181.54 190.243Z" fill="white"/>
<path fill-rule="evenodd" clip-rule="evenodd" d="M177.116 212.59H177.404L178.053 213.83H178.772L178.046 212.539C178.145 212.54 178.243 212.519 178.333 212.479C178.423 212.439 178.503 212.381 178.568 212.307C178.633 212.234 178.681 212.148 178.709 212.055C178.737 211.962 178.744 211.864 178.73 211.767C178.73 211.095 178.292 210.875 177.557 210.878H176.491V213.837H177.103V212.596L177.116 212.59ZM177.116 212.086V211.375H177.541C177.774 211.375 178.088 211.398 178.092 211.694C178.095 211.991 177.929 212.08 177.654 212.08L177.116 212.086ZM180.218 212.351C180.218 210.616 178.954 209.609 177.554 209.609C176.153 209.609 174.89 210.623 174.896 212.36C174.903 214.098 176.153 215.102 177.56 215.099C178.967 215.096 180.221 214.089 180.218 212.351ZM179.449 212.351C179.449 213.626 178.584 214.468 177.56 214.471C176.51 214.471 175.661 213.629 175.658 212.364C175.654 211.098 176.503 210.259 177.554 210.256C178.604 210.253 179.446 211.095 179.449 212.357V212.351Z" fill="white"/>
<path d="M33.4712 244.636C33.5668 244.624 33.6636 244.639 33.7512 244.678C33.8387 244.718 33.9134 244.78 33.9671 244.859C34.0119 244.94 34.0354 245.031 34.0354 245.124C34.0354 245.216 34.0119 245.307 33.9671 245.388L32.2494 248.94H35.7204L37.4802 245.254C37.561 245.054 37.7038 244.883 37.8885 244.766C38.0897 244.669 38.3128 244.624 38.5367 244.636H41.5345C41.6305 244.624 41.7278 244.639 41.8158 244.679C41.9038 244.718 41.9791 244.78 42.0336 244.859C42.0784 244.941 42.1019 245.032 42.1019 245.125C42.1019 245.218 42.0784 245.31 42.0336 245.391L36.926 256.142C36.8434 256.342 36.7009 256.512 36.5176 256.63C36.3164 256.727 36.0931 256.771 35.8695 256.758H32.862C32.7663 256.769 32.6692 256.755 32.5812 256.716C32.4932 256.677 32.4177 256.616 32.3629 256.538C32.3181 256.456 32.2946 256.364 32.2946 256.271C32.2946 256.179 32.3181 256.087 32.3629 256.005L34.1162 252.288H30.6647L28.8433 256.142C28.7607 256.343 28.6169 256.513 28.4317 256.63C28.2305 256.727 28.0072 256.771 27.7835 256.758H24.8084C24.7133 256.769 24.6167 256.755 24.5293 256.716C24.4419 256.677 24.3669 256.615 24.3126 256.538C24.2686 256.456 24.2456 256.364 24.2456 256.271C24.2456 256.179 24.2686 256.087 24.3126 256.005L29.4267 245.235C29.5092 245.035 29.653 244.864 29.8382 244.747C30.0395 244.65 30.2628 244.606 30.4864 244.62L33.4712 244.636Z" fill="#44AECA"/>
<path d="M50.638 244.377C51.3489 244.371 52.0577 244.452 52.7478 244.62C53.3251 244.756 53.8736 244.992 54.3683 245.315C54.7976 245.601 55.1528 245.982 55.4053 246.428C55.6534 246.89 55.7783 247.407 55.7683 247.929C55.7683 248.818 55.4604 249.909 54.8447 251.204C54.4197 252.139 53.8752 253.018 53.2242 253.818C52.0656 255.239 50.4591 256.241 48.6579 256.665C47.6707 256.896 46.6586 257.009 45.6439 257C44.9362 257.008 44.2305 256.926 43.5438 256.758C42.9656 256.625 42.4166 256.391 41.9234 256.066C41.4985 255.78 41.1469 255.401 40.896 254.959C40.6462 254.501 40.5201 253.987 40.5298 253.467C40.5298 252.566 40.8377 251.468 41.4535 250.174C41.8907 249.23 42.4401 248.341 43.0901 247.524C43.6634 246.817 44.3536 246.209 45.1318 245.726C45.901 245.256 46.7427 244.911 47.624 244.706C48.6118 244.479 49.6237 244.368 50.638 244.377ZM46.8236 253.671C47.1881 253.677 47.5516 253.631 47.9028 253.534C48.2258 253.439 48.525 253.278 48.781 253.062C49.0834 252.809 49.3456 252.512 49.5588 252.182C49.8463 251.737 50.1019 251.273 50.3237 250.792C50.7547 249.877 50.9718 249.198 50.9718 248.768C50.9796 248.615 50.9477 248.462 50.8791 248.324C50.8105 248.186 50.7075 248.068 50.5797 247.98C50.2434 247.778 49.8519 247.682 49.4584 247.706C49.0927 247.7 48.7281 247.746 48.3759 247.843C48.0534 247.94 47.7545 248.1 47.4977 248.315C47.1944 248.569 46.9322 248.867 46.7198 249.198C46.4352 249.641 46.1849 250.105 45.9712 250.585C45.5391 251.478 45.323 252.158 45.323 252.626C45.3141 252.777 45.3445 252.928 45.4114 253.065C45.4783 253.202 45.5795 253.319 45.7055 253.407C46.042 253.605 46.4322 253.697 46.8236 253.671Z" fill="#44AECA"/>
<path d="M63.6764 244.636C63.852 244.616 64.029 244.661 64.1722 244.763C64.2624 244.854 64.3203 244.972 64.3375 245.098L65.1056 248.819H65.2093L69.6039 244.993C69.7292 244.88 69.8699 244.784 70.0219 244.709C70.1889 244.649 70.3663 244.623 70.5437 244.633H74.1346C74.4003 244.633 74.5689 244.709 74.6402 244.862C74.6739 244.946 74.6882 245.037 74.6821 245.127C74.6759 245.218 74.6494 245.306 74.6045 245.385L69.4969 256.155C69.4143 256.355 69.2719 256.525 69.0886 256.643C68.8871 256.739 68.664 256.783 68.4404 256.77H65.4653C65.3697 256.781 65.2729 256.767 65.185 256.728C65.0972 256.689 65.0216 256.628 64.9662 256.55C64.9222 256.468 64.8992 256.377 64.8992 256.284C64.8992 256.191 64.9222 256.1 64.9662 256.018L67.6334 250.445H67.5816L63.3685 253.875C63.286 253.951 63.1946 254.016 63.0962 254.07C62.9842 254.118 62.8618 254.139 62.7397 254.131C62.6868 254.136 62.6333 254.13 62.5826 254.114C62.5319 254.098 62.485 254.072 62.4448 254.038C62.3845 253.972 62.3421 253.892 62.3217 253.805L61.4693 250.496H61.4175L58.7308 256.155C58.6482 256.355 58.5058 256.525 58.3225 256.643C58.121 256.739 57.8979 256.783 57.6743 256.77H54.6927C54.5975 256.782 54.501 256.767 54.4136 256.729C54.3262 256.69 54.2512 256.628 54.1969 256.55C54.1529 256.468 54.1299 256.377 54.1299 256.284C54.1299 256.191 54.1529 256.1 54.1969 256.018L59.3531 245.273C59.4385 245.072 59.5815 244.899 59.7646 244.776C59.9694 244.664 60.2018 244.611 60.4355 244.623L63.6764 244.636Z" fill="#44AECA"/>
<path d="M87.0134 244.636C87.1017 244.616 87.1938 244.624 87.2775 244.658C87.3612 244.691 87.4324 244.749 87.4818 244.824C87.5311 244.898 87.5561 244.986 87.5535 245.075C87.5509 245.164 87.5208 245.25 87.4672 245.321L86.4949 247.292C86.4326 247.45 86.3186 247.583 86.1708 247.671C86.0017 247.736 85.8206 247.765 85.6393 247.757H80.0942L79.4007 249.163H84.3527C84.4418 249.152 84.5323 249.164 84.6149 249.199C84.6975 249.234 84.7692 249.29 84.8226 249.361C84.8646 249.435 84.8866 249.519 84.8866 249.605C84.8866 249.69 84.8646 249.774 84.8226 249.849L84.0027 251.615C83.9423 251.774 83.8277 251.907 83.6786 251.991C83.5098 252.057 83.3285 252.087 83.1471 252.077H78.0363L77.3071 253.639H82.8165C82.9053 253.628 82.9957 253.64 83.0782 253.674C83.1608 253.708 83.2327 253.764 83.2864 253.834C83.326 253.911 83.3452 253.996 83.3424 254.082C83.3396 254.167 83.3147 254.251 83.2702 254.325L82.3304 256.295C82.269 256.454 82.1548 256.588 82.0063 256.675C81.837 256.739 81.6559 256.767 81.4748 256.758H72.0763C71.9811 256.769 71.8846 256.755 71.7972 256.716C71.7098 256.677 71.6348 256.615 71.5805 256.538C71.5357 256.456 71.5122 256.364 71.5122 256.271C71.5122 256.179 71.5357 256.087 71.5805 256.005L76.6848 245.235C76.7674 245.035 76.9112 244.864 77.0964 244.747C77.2976 244.65 77.521 244.606 77.7446 244.62L87.0134 244.636Z" fill="#44AECA"/>
<path d="M95.2228 244.636C95.9712 244.625 96.719 244.685 97.4558 244.814C97.9684 244.903 98.4611 245.08 98.9109 245.337C99.2543 245.543 99.5274 245.845 99.6952 246.204C99.8566 246.582 99.936 246.988 99.9285 247.397C99.8975 248.097 99.7257 248.784 99.4229 249.418C99.1592 250.054 98.8081 250.652 98.3794 251.194C97.9826 251.681 97.4898 252.083 96.9307 252.377C96.2999 252.701 95.6205 252.924 94.9182 253.037C94.0176 253.185 93.1056 253.254 92.1926 253.244H89.0004L87.555 256.295C87.487 256.45 87.3743 256.58 87.2309 256.672C87.0656 256.75 86.8825 256.785 86.6994 256.774H84.9915C84.9167 256.779 84.8419 256.763 84.7766 256.727C84.7113 256.69 84.6586 256.636 84.6252 256.57C84.5917 256.506 84.5742 256.436 84.5742 256.364C84.5742 256.292 84.5917 256.222 84.6252 256.158L89.8722 245.114C89.9411 244.961 90.0536 244.83 90.1963 244.738C90.3669 244.658 90.5555 244.623 90.744 244.636H95.2228ZM90.0634 251.012H92.6561C93.1522 251.017 93.6482 250.988 94.1404 250.926C94.5168 250.88 94.884 250.778 95.2293 250.623C95.5298 250.487 95.7973 250.289 96.0136 250.043C96.2533 249.753 96.4497 249.431 96.5969 249.087C96.6835 248.901 96.7561 248.709 96.8141 248.513C96.8619 248.36 96.8881 248.201 96.8918 248.041C96.9008 247.848 96.8485 247.656 96.7423 247.494C96.6361 247.331 96.4811 247.205 96.2988 247.132C95.7085 246.918 95.0798 246.824 94.4515 246.858H92.0403L90.0634 251.012Z" fill="#44AECA"/>
<path d="M109.674 244.413C111.322 244.413 112.556 244.722 113.375 245.34C113.767 245.62 114.084 245.989 114.298 246.417C114.513 246.844 114.619 247.316 114.606 247.792C114.598 248.284 114.531 248.773 114.405 249.249C114.246 249.862 114.029 250.458 113.757 251.031C113.332 251.975 112.804 252.869 112.182 253.7C111.643 254.411 110.992 255.033 110.254 255.543C109.532 256.027 108.734 256.389 107.891 256.614C106.95 256.857 105.98 256.975 105.007 256.965C104.279 256.977 103.554 256.893 102.849 256.716C102.294 256.58 101.771 256.342 101.306 256.015C100.91 255.734 100.59 255.363 100.373 254.934C100.155 254.499 100.044 254.019 100.048 253.534C100.105 252.401 100.402 251.292 100.92 250.279C101.342 249.34 101.872 248.451 102.499 247.63C103.037 246.923 103.687 246.306 104.424 245.803C105.142 245.317 105.942 244.959 106.786 244.747C107.73 244.514 108.701 244.402 109.674 244.413ZM105.542 254.701C106.122 254.71 106.701 254.634 107.259 254.478C107.761 254.332 108.233 254.1 108.653 253.793C109.104 253.457 109.498 253.052 109.82 252.594C110.213 252.036 110.555 251.445 110.841 250.827C111.318 249.82 111.556 249.02 111.554 248.427C111.562 248.18 111.51 247.935 111.401 247.713C111.292 247.491 111.13 247.298 110.928 247.151C110.378 246.808 109.731 246.646 109.081 246.689C108.5 246.682 107.922 246.757 107.363 246.912C106.864 247.058 106.395 247.29 105.979 247.598C105.533 247.935 105.145 248.341 104.829 248.8C104.44 249.358 104.102 249.949 103.818 250.566C103.338 251.57 103.101 252.377 103.101 252.983C103.09 253.228 103.14 253.472 103.246 253.694C103.352 253.917 103.512 254.11 103.711 254.258C104.257 254.594 104.899 254.75 105.542 254.701Z" fill="#44AECA"/>
<path d="M120.148 244.636C120.553 244.636 120.728 244.824 120.67 245.2L119.263 254.051H119.403L126.928 244.955C127.015 244.846 127.126 244.757 127.252 244.696C127.38 244.647 127.517 244.625 127.654 244.629H129.744C129.817 244.624 129.89 244.634 129.959 244.657C130.028 244.681 130.092 244.718 130.146 244.766C130.191 244.81 130.223 244.865 130.242 244.924C130.26 244.984 130.262 245.047 130.25 245.108L128.986 254.083H129.125L136.323 244.955C136.408 244.842 136.519 244.751 136.647 244.69C136.766 244.645 136.893 244.625 137.02 244.629H138.964C139.027 244.623 139.09 244.638 139.143 244.673C139.196 244.707 139.234 244.758 139.253 244.817C139.271 244.887 139.269 244.961 139.249 245.03C139.23 245.099 139.192 245.162 139.139 245.213L130.282 256.33C130.18 256.464 130.048 256.573 129.897 256.649C129.711 256.726 129.511 256.761 129.31 256.751H126.766C126.688 256.755 126.61 256.742 126.538 256.712C126.466 256.683 126.401 256.639 126.348 256.582C126.297 256.53 126.26 256.468 126.239 256.399C126.219 256.33 126.215 256.258 126.228 256.187L127.446 247.958H127.307L120.527 256.324C120.426 256.458 120.295 256.567 120.145 256.643C119.958 256.722 119.755 256.759 119.552 256.751H116.797C116.719 256.755 116.641 256.742 116.569 256.713C116.496 256.684 116.432 256.639 116.379 256.582C116.329 256.53 116.292 256.467 116.27 256.399C116.249 256.33 116.244 256.258 116.256 256.187L117.876 245.143C117.88 245.067 117.9 244.993 117.934 244.925C117.968 244.857 118.015 244.796 118.074 244.746C118.132 244.697 118.2 244.66 118.274 244.637C118.347 244.614 118.425 244.606 118.502 244.613L120.148 244.636Z" fill="#44AECA"/>
<path d="M150.545 244.636C150.619 244.629 150.694 244.646 150.76 244.682C150.825 244.718 150.878 244.773 150.911 244.84C150.946 244.903 150.964 244.973 150.964 245.045C150.964 245.117 150.946 245.188 150.911 245.251L150.376 246.367C150.308 246.522 150.195 246.654 150.052 246.746C149.886 246.823 149.704 246.858 149.52 246.848H143.311L142.041 249.523H147.783C147.858 249.518 147.933 249.534 147.998 249.57C148.064 249.607 148.116 249.661 148.15 249.727C148.183 249.792 148.201 249.863 148.201 249.935C148.201 250.007 148.183 250.078 148.15 250.142L147.644 251.239C147.576 251.393 147.463 251.524 147.32 251.615C147.155 251.693 146.972 251.729 146.788 251.717H140.994L139.652 254.519H145.91C145.985 254.514 146.06 254.531 146.126 254.568C146.191 254.605 146.243 254.66 146.276 254.727C146.31 254.79 146.327 254.861 146.327 254.932C146.327 255.004 146.31 255.074 146.276 255.138L145.735 256.27C145.666 256.423 145.554 256.554 145.411 256.646C145.242 256.727 145.054 256.763 144.867 256.751H136.272C136.197 256.758 136.122 256.741 136.057 256.705C135.991 256.669 135.939 256.614 135.906 256.547C135.87 256.484 135.852 256.413 135.852 256.342C135.852 256.27 135.87 256.199 135.906 256.136L141.153 245.092C141.221 244.938 141.334 244.807 141.477 244.715C141.643 244.639 141.825 244.604 142.008 244.613L150.545 244.636Z" fill="#44AECA"/>
<path d="M159.259 244.636C160.864 244.636 162.027 244.87 162.746 245.337C163.081 245.534 163.358 245.815 163.548 246.151C163.737 246.487 163.833 246.866 163.825 247.25C163.821 247.565 163.781 247.878 163.705 248.184C163.622 248.535 163.505 248.876 163.355 249.205C163.135 249.711 162.864 250.193 162.545 250.646C162.257 251.048 161.907 251.405 161.508 251.701C161.095 252.001 160.64 252.241 160.157 252.412C159.6 252.608 159.025 252.746 158.439 252.823L159.816 256.082C159.855 256.161 159.875 256.247 159.875 256.335C159.875 256.423 159.855 256.51 159.816 256.589C159.768 256.658 159.701 256.713 159.622 256.748C159.544 256.782 159.457 256.794 159.372 256.783H157.473C157.349 256.799 157.224 256.771 157.119 256.706C157.013 256.64 156.935 256.54 156.896 256.423L155.496 252.925H152.933L151.348 256.279C151.281 256.434 151.168 256.565 151.024 256.656C150.858 256.734 150.675 256.769 150.492 256.758H148.784C148.71 256.763 148.635 256.747 148.57 256.711C148.504 256.674 148.452 256.62 148.418 256.554C148.385 256.49 148.367 256.42 148.367 256.348C148.367 256.276 148.385 256.206 148.418 256.142L153.665 245.098C153.735 244.945 153.847 244.815 153.989 244.722C154.155 244.645 154.338 244.61 154.521 244.62L159.259 244.636ZM153.96 250.757H156.715C157.208 250.764 157.7 250.727 158.186 250.646C158.555 250.591 158.915 250.484 159.252 250.327C159.535 250.19 159.786 249.998 159.991 249.763C160.198 249.519 160.368 249.247 160.497 248.956C160.65 248.65 160.745 248.32 160.776 247.98C160.776 247.234 159.933 246.864 158.248 246.864H155.827L153.96 250.757Z" fill="#44AECA"/>
</g>
<rect x="54" y="4" width="82" height="147" rx="8" fill="#B1B1B1"/>
<path d="M75 4C75 1.79086 76.7909 0 79 0H111C113.209 0 115 1.79086 115 4H75Z" fill="#B1B1B1"/>
<rect x="57" y="8" width="76" height="139" rx="8" fill="#44AECA"/>
<rect x="57" y="8" width="76" height="0px" rx="8" fill="#121212" id="rect-anim"/>
<path d="M73.8283 95L75.7723 85.82C75.0643 86.216 74.4523 86.522 73.9363 86.738C73.4203 86.942 72.7243 87.17 71.8483 87.422L72.4963 84.416C73.7443 84.08 75.2803 83.42 77.1043 82.436H80.0563L77.3923 95H73.8283ZM88.1605 85.514C87.6565 86.246 87.2545 87.314 86.9545 88.718C86.6545 90.122 86.6005 91.196 86.7925 91.94C86.9965 92.672 87.5005 93.038 88.3045 93.038C89.1085 93.038 89.7625 92.672 90.2665 91.94C90.7825 91.196 91.1905 90.122 91.4905 88.718C91.7905 87.314 91.8385 86.246 91.6345 85.514C91.4425 84.77 90.9445 84.398 90.1405 84.398C89.3365 84.398 88.6765 84.77 88.1605 85.514ZM83.8045 93.596C83.0125 92.42 82.8385 90.794 83.2825 88.718C83.7265 86.642 84.5905 85.022 85.8745 83.858C87.1585 82.682 88.7425 82.094 90.6265 82.094C92.5105 82.094 93.8485 82.682 94.6405 83.858C95.4325 85.022 95.6065 86.642 95.1625 88.718C94.7185 90.794 93.8545 92.42 92.5705 93.596C91.2865 94.76 89.7025 95.342 87.8185 95.342C85.9345 95.342 84.5965 94.76 83.8045 93.596ZM101.485 85.514C100.981 86.246 100.579 87.314 100.279 88.718C99.9787 90.122 99.9247 91.196 100.117 91.94C100.321 92.672 100.825 93.038 101.629 93.038C102.433 93.038 103.087 92.672 103.591 91.94C104.107 91.196 104.515 90.122 104.815 88.718C105.115 87.314 105.163 86.246 104.959 85.514C104.767 84.77 104.269 84.398 103.465 84.398C102.661 84.398 102.001 84.77 101.485 85.514ZM97.1287 93.596C96.3367 92.42 96.1627 90.794 96.6067 88.718C97.0507 86.642 97.9147 85.022 99.1987 83.858C100.483 82.682 102.067 82.094 103.951 82.094C105.835 82.094 107.173 82.682 107.965 83.858C108.757 85.022 108.931 86.642 108.487 88.718C108.043 90.794 107.179 92.42 105.895 93.596C104.611 94.76 103.027 95.342 101.143 95.342C99.2587 95.342 97.9207 94.76 97.1287 93.596ZM110.255 88.676C110.415 87.932 110.755 87.368 111.275 86.984C111.795 86.592 112.459 86.396 113.267 86.396C114.075 86.396 114.659 86.592 115.019 86.984C115.379 87.368 115.479 87.932 115.319 88.676C114.999 90.196 113.995 90.956 112.307 90.956C110.619 90.956 109.935 90.196 110.255 88.676ZM112.271 87.74C112.079 87.988 111.943 88.3 111.863 88.676C111.783 89.052 111.787 89.368 111.875 89.624C111.971 89.872 112.183 89.996 112.511 89.996C112.839 89.996 113.099 89.872 113.291 89.624C113.491 89.368 113.631 89.056 113.711 88.688C113.791 88.312 113.783 87.996 113.687 87.74C113.599 87.484 113.391 87.356 113.063 87.356C112.735 87.356 112.471 87.484 112.271 87.74ZM116.435 92.948C116.595 92.204 116.935 91.64 117.455 91.256C117.983 90.864 118.651 90.668 119.459 90.668C120.267 90.668 120.847 90.864 121.199 91.256C121.559 91.64 121.659 92.204 121.499 92.948C121.179 94.468 120.175 95.228 118.487 95.228C116.799 95.228 116.115 94.468 116.435 92.948ZM118.463 92.012C118.263 92.26 118.123 92.572 118.043 92.948C117.963 93.324 117.967 93.64 118.055 93.896C118.151 94.144 118.363 94.268 118.691 94.268C119.019 94.268 119.279 94.144 119.471 93.896C119.671 93.64 119.811 93.328 119.891 92.96C119.971 92.584 119.967 92.268 119.879 92.012C119.791 91.756 119.583 91.628 119.255 91.628C118.927 91.628 118.663 91.756 118.463 92.012ZM110.963 95.288L119.411 86.336H120.803L112.355 95.288H110.963Z" fill="#121212"/>
<path d="M77.8981 107V102.668H79.4461C79.7261 102.668 79.9461 102.69 80.1061 102.734C80.2661 102.774 80.4101 102.858 80.5381 102.986C80.7421 103.182 80.8441 103.44 80.8441 103.76C80.8441 103.896 80.8241 104.02 80.7841 104.132C80.7441 104.24 80.7001 104.326 80.6521 104.39C80.6041 104.454 80.5381 104.514 80.4541 104.57C80.3741 104.622 80.3141 104.658 80.2741 104.678C80.2341 104.694 80.1801 104.714 80.1121 104.738C80.1881 104.758 80.2521 104.778 80.3041 104.798C80.3561 104.818 80.4281 104.856 80.5201 104.912C80.6161 104.968 80.6921 105.032 80.7481 105.104C80.8081 105.172 80.8601 105.27 80.9041 105.398C80.9521 105.522 80.9761 105.662 80.9761 105.818C80.9761 106.242 80.8021 106.57 80.4541 106.802C80.3621 106.862 80.2541 106.908 80.1301 106.94C80.0101 106.972 79.9081 106.99 79.8241 106.994C79.7441 106.998 79.6281 107 79.4761 107H77.8981ZM78.4801 103.16V104.498H79.3201C79.9201 104.498 80.2201 104.27 80.2201 103.814C80.2201 103.69 80.1981 103.584 80.1541 103.496C80.1141 103.408 80.0661 103.344 80.0101 103.304C79.9581 103.26 79.8841 103.226 79.7881 103.202C79.6961 103.178 79.6221 103.166 79.5661 103.166C79.5101 103.162 79.4361 103.16 79.3441 103.16H78.4801ZM78.4801 105.014V106.514H79.5061C79.7541 106.514 79.9581 106.45 80.1181 106.322C80.2781 106.19 80.3581 106.004 80.3581 105.764C80.3581 105.544 80.2841 105.364 80.1361 105.224C79.9921 105.084 79.7901 105.014 79.5301 105.014H78.4801ZM84.2041 107H83.6941C83.6581 106.872 83.6401 106.722 83.6401 106.55C83.4441 106.914 83.1341 107.096 82.7101 107.096C82.3741 107.096 82.1121 107.014 81.9241 106.85C81.7401 106.682 81.6481 106.468 81.6481 106.208C81.6481 105.824 81.8241 105.53 82.1761 105.326C82.4121 105.194 82.7601 105.128 83.2201 105.128C83.3201 105.128 83.4561 105.134 83.6281 105.146C83.6281 104.934 83.6221 104.786 83.6101 104.702C83.5981 104.614 83.5681 104.54 83.5201 104.48C83.4201 104.348 83.2461 104.282 82.9981 104.282C82.6101 104.282 82.4081 104.452 82.3921 104.792H81.8281C81.8561 104.544 81.9261 104.354 82.0381 104.222C82.2341 104.006 82.5581 103.898 83.0101 103.898C83.2461 103.898 83.4641 103.936 83.6641 104.012C83.8641 104.088 84.0021 104.198 84.0781 104.342C84.1461 104.47 84.1801 104.624 84.1801 104.804L84.1561 106.244C84.1561 106.516 84.1721 106.768 84.2041 107ZM83.6281 105.536C83.5281 105.524 83.4201 105.518 83.3041 105.518C82.5801 105.518 82.2181 105.722 82.2181 106.13C82.2181 106.258 82.2661 106.378 82.3621 106.49C82.4581 106.598 82.6181 106.652 82.8421 106.652C83.1301 106.652 83.3441 106.544 83.4841 106.328C83.5441 106.232 83.5801 106.136 83.5921 106.04C83.6081 105.94 83.6201 105.772 83.6281 105.536ZM84.7301 104.39V103.976H85.2641V103.346L85.8221 103.166V103.976H86.4941V104.39H85.8221V106.196C85.8221 106.252 85.8241 106.296 85.8281 106.328C85.8361 106.36 85.8501 106.4 85.8701 106.448C85.8941 106.496 85.9341 106.534 85.9901 106.562C86.0501 106.586 86.1281 106.598 86.2241 106.598C86.3241 106.598 86.4141 106.588 86.4941 106.568V107.006C86.3581 107.03 86.2021 107.042 86.0261 107.042C85.7581 107.042 85.5641 106.996 85.4441 106.904C85.3241 106.808 85.2641 106.64 85.2641 106.4V104.39H84.7301ZM86.7281 104.39V103.976H87.2621V103.346L87.8201 103.166V103.976H88.4921V104.39H87.8201V106.196C87.8201 106.252 87.8221 106.296 87.8261 106.328C87.8341 106.36 87.8481 106.4 87.8681 106.448C87.8921 106.496 87.9321 106.534 87.9881 106.562C88.0481 106.586 88.1261 106.598 88.2221 106.598C88.3221 106.598 88.4121 106.588 88.4921 106.568V107.006C88.3561 107.03 88.2001 107.042 88.0241 107.042C87.7561 107.042 87.5621 106.996 87.4421 106.904C87.3221 106.808 87.2621 106.64 87.2621 106.4V104.39H86.7281ZM91.6962 105.596H89.5302C89.5222 105.924 89.5902 106.188 89.7342 106.388C89.8782 106.584 90.0982 106.682 90.3942 106.682C90.5862 106.682 90.7462 106.63 90.8742 106.526C91.0022 106.422 91.0782 106.266 91.1022 106.058H91.6662C91.6342 106.326 91.5482 106.536 91.4082 106.688C91.1722 106.956 90.8262 107.09 90.3702 107.09C89.9062 107.09 89.5562 106.956 89.3202 106.688C89.0882 106.416 88.9722 106.036 88.9722 105.548C88.9722 105.224 89.0142 104.946 89.0982 104.714C89.1862 104.482 89.3422 104.288 89.5662 104.132C89.7742 103.984 90.0482 103.91 90.3882 103.91C90.6042 103.91 90.7922 103.94 90.9522 104C91.1162 104.06 91.2422 104.14 91.3302 104.24C91.4182 104.336 91.4922 104.446 91.5522 104.57C91.6122 104.69 91.6482 104.814 91.6602 104.942C91.6722 105.066 91.6842 105.186 91.6962 105.302C91.7082 105.418 91.7082 105.516 91.6962 105.596ZM89.5542 105.2H91.1202C91.1202 105.108 91.1122 105.02 91.0962 104.936C91.0842 104.852 91.0562 104.758 91.0122 104.654C90.9682 104.55 90.8922 104.468 90.7842 104.408C90.6762 104.344 90.5402 104.312 90.3762 104.312C90.1602 104.312 89.9702 104.384 89.8062 104.528C89.6422 104.672 89.5582 104.896 89.5542 105.2ZM92.5521 107V104.6C92.5521 104.412 92.5421 104.208 92.5221 103.988H93.0921L93.1041 104.57C93.1921 104.23 93.4321 104.032 93.8241 103.976C93.9441 103.96 94.0741 103.956 94.2141 103.964V104.516C94.1901 104.508 94.1541 104.5 94.1061 104.492C94.0781 104.488 94.0241 104.486 93.9441 104.486C93.6361 104.486 93.4221 104.566 93.3021 104.726C93.1821 104.886 93.1221 105.11 93.1221 105.398V107H92.5521ZM97.5482 103.988L96.2102 107.018L95.7782 108.14H95.1962L95.6522 106.988L94.3982 103.988H95.0342L95.9762 106.364L96.9362 103.988H97.5482ZM99.8701 107V102.674H100.434V107H99.8701ZM104.036 105.596H101.87C101.862 105.924 101.93 106.188 102.074 106.388C102.218 106.584 102.438 106.682 102.734 106.682C102.926 106.682 103.086 106.63 103.214 106.526C103.342 106.422 103.418 106.266 103.442 106.058H104.006C103.974 106.326 103.888 106.536 103.748 106.688C103.512 106.956 103.166 107.09 102.71 107.09C102.246 107.09 101.896 106.956 101.66 106.688C101.428 106.416 101.312 106.036 101.312 105.548C101.312 105.224 101.354 104.946 101.438 104.714C101.526 104.482 101.682 104.288 101.906 104.132C102.114 103.984 102.388 103.91 102.728 103.91C102.944 103.91 103.132 103.94 103.292 104C103.456 104.06 103.582 104.14 103.67 104.24C103.758 104.336 103.832 104.446 103.892 104.57C103.952 104.69 103.988 104.814 104 104.942C104.012 105.066 104.024 105.186 104.036 105.302C104.048 105.418 104.048 105.516 104.036 105.596ZM101.894 105.2H103.46C103.46 105.108 103.452 105.02 103.436 104.936C103.424 104.852 103.396 104.758 103.352 104.654C103.308 104.55 103.232 104.468 103.124 104.408C103.016 104.344 102.88 104.312 102.716 104.312C102.5 104.312 102.31 104.384 102.146 104.528C101.982 104.672 101.898 104.896 101.894 105.2ZM105.666 107L104.406 103.988H105.036L105.996 106.376L106.932 103.988H107.556L106.236 107H105.666ZM110.704 105.596H108.538C108.53 105.924 108.598 106.188 108.742 106.388C108.886 106.584 109.106 106.682 109.402 106.682C109.594 106.682 109.754 106.63 109.882 106.526C110.01 106.422 110.086 106.266 110.11 106.058H110.674C110.642 106.326 110.556 106.536 110.416 106.688C110.18 106.956 109.834 107.09 109.378 107.09C108.914 107.09 108.564 106.956 108.328 106.688C108.096 106.416 107.98 106.036 107.98 105.548C107.98 105.224 108.022 104.946 108.106 104.714C108.194 104.482 108.35 104.288 108.574 104.132C108.782 103.984 109.056 103.91 109.396 103.91C109.612 103.91 109.8 103.94 109.96 104C110.124 104.06 110.25 104.14 110.338 104.24C110.426 104.336 110.5 104.446 110.56 104.57C110.62 104.69 110.656 104.814 110.668 104.942C110.68 105.066 110.692 105.186 110.704 105.302C110.716 105.418 110.716 105.516 110.704 105.596ZM108.562 105.2H110.128C110.128 105.108 110.12 105.02 110.104 104.936C110.092 104.852 110.064 104.758 110.02 104.654C109.976 104.55 109.9 104.468 109.792 104.408C109.684 104.344 109.548 104.312 109.384 104.312C109.168 104.312 108.978 104.384 108.814 104.528C108.65 104.672 108.566 104.896 108.562 105.2ZM111.542 107V102.674H112.106V107H111.542Z" fill="#121212"/>
<path d="M106.726 40.7526L99.1419 42.4226L102.85 29.3471C103.172 28.2106 101.663 27.4826 100.987 28.4505L86.1938 49.6126C85.6376 50.4084 86.3627 51.4762 87.3007 51.2437L94.0584 49.5686L90.3623 62.6566C90.0438 63.7843 91.5264 64.503 92.211 63.5731L107.791 42.411C108.366 41.6299 107.669 40.5451 106.726 40.7526Z" fill="#121212"/>
<defs>
<clipPath id="clip0">
<rect y="178" width="189" height="79" fill="white"/>
</clipPath>
</defs>
<style>
    #rect-anim {
        animation: rect-anim linear 4s
    }
@keyframes rect-anim {
  0% {
    height: 139px;
  }

  100% {
    height: 0px;
  }
}
</style>
</svg>
