<svg xmlns="http://www.w3.org/2000/svg" width="679.94" height="411.558" viewBox="0 0 679.94 411.558">
  <g id="Group_48" data-name="Group 48" transform="translate(-620.06 -215.683)">
    <path id="Path_68" data-name="Path 68" d="M1384.834,1684.549l45.006,65.153v168.173h-90.01V1749.7l45-65.155Z" transform="translate(-232.139 -1304.474)" fill="#121212" stroke="#d3d3d3" stroke-miterlimit="10" stroke-width="1" fill-rule="evenodd"/>
    <path id="Path_69" data-name="Path 69" d="M1025.334,1820.508H804.159V1844.8h75.346l-.112,24.291H804.159v124.561h221.175V1820.508Z" transform="translate(67.413 -1380.25)" fill="#121212" stroke="#d3d3d3" stroke-miterlimit="10" stroke-width="2" fill-rule="evenodd"/>
    <path id="Path_70" data-name="Path 70" d="M1025.334,1688.39H804.159l72.483-104.931h221.174l-72.482,104.931Z" transform="translate(66.413 -1248.133)" fill="#121212" stroke="#d3d3d3" stroke-miterlimit="10" stroke-width="2" fill-rule="evenodd"/>
    <path id="Path_71" data-name="Path 71" d="M1150.252,2013.083l4.5,4.5h38.973v-94.1l-5.376-5.376" transform="translate(-126.479 -1434.651)" fill="#121212" stroke="#3eb1c8" stroke-miterlimit="10" stroke-width="2" fill-rule="evenodd"/>
    <path id="Path_72" data-name="Path 72" d="M1108.937,2132.656l4.5,4.5h17.981" transform="translate(-103.453 -1554.224)" fill="#121212" stroke="#3eb1c8" stroke-miterlimit="10" stroke-width="2" fill-rule="evenodd"/>
    <path id="Path_73" data-name="Path 73" d="M1319.756,1693.361l56.539-81.852h0l56.54,81.852v168.171h15.942V1688.389l-72.482-104.932h0l-72.482,104.932v173.142h15.943V1693.361Z" transform="translate(-212.066 -1248.131)" fill="#121212" stroke="#d3d3d3" stroke-miterlimit="10" stroke-width="2" fill-rule="evenodd"/>
    <path id="Path_74" data-name="Path 74" d="M1566.239,1831.737h-23.068v168.172h23.068V1831.737Z" transform="translate(-345.471 -1386.508)" fill="#121212" stroke="#d3d3d3" stroke-miterlimit="10" stroke-width="1" fill-rule="evenodd"/>
    <path id="Path_76" data-name="Path 76" d="M987.386,2115.039H943.329v-76.732h44.057v76.732Z" transform="translate(-11.152 -1501.638)" fill="#121212" stroke="#d3d3d3" stroke-miterlimit="10" stroke-width="2" fill-rule="evenodd"/>
    <path id="Path_77" data-name="Path 77" d="M997.178,2115.039H960.9v-76.732h36.28v76.732Z" transform="translate(-20.944 -1501.638)" fill="#121212" stroke="#d3d3d3" stroke-miterlimit="10" stroke-width="1" fill-rule="evenodd"/>
    <path id="Path_78" data-name="Path 78" d="M919.721,1899.675H821.73v-24.291h97.992v24.291Z" transform="translate(56.621 -1410.835)" fill="#121212" stroke="#d3d3d3" stroke-miterlimit="10" stroke-width="2" fill-rule="evenodd"/>
    <path id="Path_79" data-name="Path 79" d="M1050.077,2211.654H736.795v12.84h313.282v-12.84Z" transform="translate(103.958 -1598.253)" fill="#121212" stroke="#d3d3d3" stroke-miterlimit="10" stroke-width="2" fill-rule="evenodd"/>
    <rect id="Rectangle_38" data-name="Rectangle 38" width="138.115" height="12.697" transform="translate(640.55 613.545)" fill="none" stroke="#d3d3d3" stroke-miterlimit="10" stroke-width="2"/>
    <path id="Path_80" data-name="Path 80" d="M919.72,1899.674H911.2v-14.945H821.727v-9.346h97.886l.107,24.291Z" transform="translate(56.622 -1410.834)" fill="#121212" stroke="#d3d3d3" stroke-miterlimit="10" stroke-width="1" fill-rule="evenodd"/>
    <path id="Path_81" data-name="Path 81" d="M1589.494,2211.651H1444.53v12.842h144.964v-12.842Z" transform="translate(-290.494 -1598.251)" fill="#121212" stroke="#d3d3d3" stroke-miterlimit="10" stroke-width="2" fill-rule="evenodd"/>
    <path id="Path_82" data-name="Path 82" d="M918.863,1583.46q-36.241,52.465-72.483,104.931h0" transform="translate(42.882 -1248.133)" fill="#121212" stroke="#d3d3d3" stroke-miterlimit="10" stroke-width="1" fill-rule="evenodd"/>
    <path id="Path_83" data-name="Path 83" d="M964.822,1583.46q-36.242,52.465-72.483,104.931h0" transform="translate(17.267 -1248.133)" fill="#121212" stroke="#d3d3d3" stroke-miterlimit="10" stroke-width="1" fill-rule="evenodd"/>
    <path id="Path_84" data-name="Path 84" d="M1010.781,1583.46q-36.242,52.465-72.483,104.931h0" transform="translate(-8.348 -1248.133)" fill="#121212" stroke="#d3d3d3" stroke-miterlimit="10" stroke-width="1" fill-rule="evenodd"/>
    <path id="Path_85" data-name="Path 85" d="M1056.739,1583.46q-36.241,52.465-72.482,104.931h0" transform="translate(-33.963 -1248.133)" fill="#121212" stroke="#d3d3d3" stroke-miterlimit="10" stroke-width="1" fill-rule="evenodd"/>
    <path id="Path_86" data-name="Path 86" d="M1102.7,1583.46q-36.242,52.465-72.482,104.931h0" transform="translate(-59.578 -1248.133)" fill="#121212" stroke="#d3d3d3" stroke-miterlimit="10" stroke-width="1" fill-rule="evenodd"/>
    <path id="Path_87" data-name="Path 87" d="M1148.657,1583.46q-36.241,52.465-72.483,104.931h0" transform="translate(-85.193 -1248.133)" fill="#121212" stroke="#d3d3d3" stroke-miterlimit="10" stroke-width="1" fill-rule="evenodd"/>
    <path id="Path_88" data-name="Path 88" d="M1194.616,1583.46q-36.242,52.465-72.483,104.931h0" transform="translate(-110.808 -1248.133)" fill="#121212" stroke="#d3d3d3" stroke-miterlimit="10" stroke-width="1" fill-rule="evenodd"/>
    <path id="Path_89" data-name="Path 89" d="M1240.575,1583.46q-36.242,52.465-72.483,104.931h0" transform="translate(-136.423 -1248.133)" fill="#121212" stroke="#d3d3d3" stroke-miterlimit="10" stroke-width="1" fill-rule="evenodd"/>
    <path id="Path_90" data-name="Path 90" d="M1286.534,1583.46q-36.242,52.465-72.483,104.931h0" transform="translate(-162.038 -1248.133)" fill="#121212" stroke="#d3d3d3" stroke-miterlimit="10" stroke-width="1" fill-rule="evenodd"/>
    <path id="Path_91" data-name="Path 91" d="M1332.492,1583.46q-36.241,52.465-72.482,104.931h0" transform="translate(-187.653 -1248.133)" fill="#121212" stroke="#d3d3d3" stroke-miterlimit="10" stroke-width="1" fill-rule="evenodd"/>
    <path id="Path_92" data-name="Path 92" d="M1333.25,1611.654l-3.168-9.108-56.642,81.936,3.169,9.11,56.641-81.937Z" transform="translate(-195.138 -1258.77)" fill="#121212" stroke="#d3d3d3" stroke-miterlimit="10" stroke-width="2" fill-rule="evenodd"/>
    <path id="Path_93" data-name="Path 93" d="M1099.738,1787.649l-137.958.049,3.169,9.109,137.958-.05-3.169-9.108Z" transform="translate(-21.436 -1361.936)" fill="#121212" stroke="#d3d3d3" stroke-miterlimit="10" stroke-width="2" fill-rule="evenodd"/>
    <path id="Path_94" data-name="Path 94" d="M1039.243,1602.547h-20.815l-56.642,81.936,117.807.008,20.149-.008,56.642-81.936Z" transform="translate(-21.439 -1258.77)" fill="#121212" stroke="#d3d3d3" stroke-miterlimit="10" stroke-width="2" fill-rule="evenodd"/>
    <path id="Path_95" data-name="Path 95" d="M1156.375,1602.555l.006-.01h-7.329l-.006.008-109.806-.007-20.814,0-.831,1.249-25.32,36.629h-.115l-2.855,4.3L966.09,1678.3h-.2l-4.109,6.182h.033l-.035.051,7.331,0,.032-.047,36.2,0-.022.031,7.332,0,.019-.028,36.2,0-.009.013,7.331,0,.007-.01,23.385,0,20.149,0,4.268-6.182h0l21.911-31.7h.088q2.133-3.09,4.268-6.182h-.083l21.91-31.7h.171l4.268-6.181Zm-55.132,6.178-21.91,31.7-21.439,0h-14.761l8.621-12.471,13.29-19.225Zm-79.73-.006,20.772,0h15.43l-9.011,13.034-12.9,18.661-36.2,0Zm-11.894,69.575-36.2,0,21.911-31.7,36.2,0Zm43.529,0-36.2,0,21.911-31.7h36.2l-8.247,11.93Zm43.529,0h-20.131l-16.069,0,9.385-13.574,12.526-18.121,36.2,0Zm26.184-37.877-36.2,0,21.911-31.7,36.2,0Z" transform="translate(-21.437 -1258.769)" fill="#121212" stroke="#d3d3d3" stroke-miterlimit="10" stroke-width="2" fill-rule="evenodd"/>
    <path id="Path_96" data-name="Path 96" d="M1339.829,1845.737h9.148v72.14h4.594v-72.14h39.458v72.14h4.594v-72.14h27.623v72.14h4.594V1749.7l-45.005-65.153-2.792,4.042,10.986,15.9v88.819h-39.458V1729.81l-4.594,6.651v56.855h-9.148v4.594h9.148v43.234h-9.148v4.593Zm85.417-4.593h-27.623v-43.234h27.623v43.234Zm0-47.828h-27.623v-82.168l27.623,39.989v42.179Zm-32.217,47.828h-39.458v-43.234h39.458v43.234Z" transform="translate(-232.139 -1304.475)" fill="#121212" stroke="#d3d3d3" stroke-miterlimit="10" stroke-width="1" fill-rule="evenodd"/>
    <rect id="Rectangle_39" data-name="Rectangle 39" width="38.102" height="94.186" transform="translate(1023.772 484.247)" fill="#121212" stroke="#3eb1c8" stroke-miterlimit="10" stroke-width="2"/>
    <rect id="Rectangle_40" data-name="Rectangle 40" width="18.326" height="94.186" transform="translate(1005.229 484.247)" fill="#121212" stroke="#3eb1c8" stroke-miterlimit="10" stroke-width="2"/>
    <line id="Line_216" data-name="Line 216" x1="56.645" transform="translate(1005.229 543.118)" fill="none" stroke="#3eb1c8" stroke-miterlimit="10" stroke-width="2"/>
    <line id="Line_217" data-name="Line 217" x1="56.645" transform="translate(1005.229 521.921)" fill="none" stroke="#3eb1c8" stroke-miterlimit="10" stroke-width="2"/>
    <g id="Group_27" data-name="Group 27" transform="translate(622.206 217.518)">
      <g id="Group_26" data-name="Group 26">
        <g id="Group_25" data-name="Group 25">
          <path id="Path_97" data-name="Path 97" d="M357.227,1886.318l38.717-234.473h39.321l38.717,234.473" transform="translate(-328.325 -1489.7)" fill="none" stroke="#d3d3d3" stroke-miterlimit="10" stroke-width="2"/>
          <path id="Path_98" data-name="Path 98" d="M434,1662.039l-98.722-109.2L406,1492.457l-50.036-64.891,39.251-81.073-39.18-81.073-67.689,81.434H462.906l-67.689-81.434-39.18,81.073,39.251,81.073-50.036,64.891,70.721,60.381-98.722,109.2" transform="translate(-288.348 -1265.421)" fill="none" stroke="#d3d3d3" stroke-miterlimit="10" stroke-width="2"/>
        </g>
        <path id="Path_99" data-name="Path 99" d="M288.348,1540.087l67.689-80.595h39.18l67.689,80.595Z" transform="translate(-288.348 -1378.059)" fill="none" stroke="#d3d3d3" stroke-miterlimit="10" stroke-width="2"/>
        <rect id="Rectangle_41" data-name="Rectangle 41" width="39.18" height="162.145" transform="translate(67.689)" fill="none" stroke="#d3d3d3" stroke-miterlimit="10" stroke-width="2"/>
        <rect id="Rectangle_42" data-name="Rectangle 42" width="20.512" height="20.086" transform="translate(0 81.434)" fill="none" stroke="#d3d3d3" stroke-miterlimit="10" stroke-width="1"/>
        <rect id="Rectangle_43" data-name="Rectangle 43" width="20.512" height="20.086" transform="translate(154.046 81.434)" fill="none" stroke="#d3d3d3" stroke-miterlimit="10" stroke-width="1"/>
        <rect id="Rectangle_44" data-name="Rectangle 44" width="20.512" height="20.925" transform="translate(0 162.028)" fill="none" stroke="#d3d3d3" stroke-miterlimit="10" stroke-width="1"/>
        <rect id="Rectangle_45" data-name="Rectangle 45" width="20.512" height="20.925" transform="translate(155.087 163.069)" fill="none" stroke="#d3d3d3" stroke-miterlimit="10" stroke-width="1"/>
      </g>
    </g>
    <path id="Path_100" data-name="Path 100" d="M1112.088,2026.269" transform="translate(-105.209 -1494.93)" fill="#121212" stroke="#d3d3d3" stroke-miterlimit="10" stroke-width="2"/>
    <path id="Path_101" data-name="Path 101" d="M704.355,1626.307" transform="translate(137.45 -1247.789)" fill="none" stroke="#d3d3d3" stroke-miterlimit="10" stroke-width="2"/>
    <path id="Path_169" data-name="Path 169" d="M679.913,1710.54v28.842h0c0,45.376,42.147,82.16,94.137,82.16h272.13" transform="translate(-47.958 -1294.713)" fill="none" stroke="#3eb1c8" stroke-miterlimit="10" stroke-width="2" stroke-dasharray="7 8" fill-rule="evenodd"/>
    <path id="Path_193" data-name="Path 193" d="M679.913,1708.6v30.936c0,34.6,37.675,62.651,84.149,62.651H891.5" transform="translate(106.722 -1287.931)" fill="none" stroke="#3eb1c8" stroke-miterlimit="10" stroke-width="2" stroke-dasharray="7 8" fill-rule="evenodd"/>
    <path id="Path_194" data-name="Path 194" d="M0,0,3.725,3.725.03,7.419" transform="translate(628.497 417.53) rotate(-90)" fill="#121212" stroke="#3eb1c8" stroke-miterlimit="10" stroke-width="2" fill-rule="evenodd"/>
    <path id="Path_195" data-name="Path 195" d="M0,0,3.725,3.725.03,7.419" transform="translate(783.497 417.53) rotate(-90)" fill="#121212" stroke="#3eb1c8" stroke-miterlimit="10" stroke-width="2" fill-rule="evenodd"/>
  </g>
</svg>
