<svg xmlns="http://www.w3.org/2000/svg" width="573.873" height="507.329" viewBox="0 0 573.873 507.329">
  <g id="Group_47" data-name="Group 47" transform="translate(-726.127 -120.912)">
    <path id="Path_106" data-name="Path 106" d="M1384.824,1684.549l45,65.14v168.139h-89.992V1749.691l45-65.141Z" transform="translate(-232.101 -1303.425)" fill="#121212" stroke="#d3d3d3" stroke-miterlimit="10" stroke-width="1" fill-rule="evenodd"/>
    <path id="Path_67" data-name="Path 67" d="M1068.841,747.666l4.795,4.795-4.756,4.756" transform="translate(-130.153 -233.846)" fill="#121212" stroke="#d3d3d3" stroke-miterlimit="10" stroke-width="2" fill-rule="evenodd"/>
    <path id="Path_116" data-name="Path 116" d="M1025.289,1820.508H804.159v24.287H879.49l-.112,24.286H804.159v124.536h221.13V1820.508Z" transform="translate(66.5 -1379.212)" fill="#121212" stroke="#d3d3d3" stroke-miterlimit="10" stroke-width="2" fill-rule="evenodd"/>
    <path id="Path_108" data-name="Path 108" d="M1025.289,1688.369H804.159l72.468-104.909h221.129l-72.467,104.909Z" transform="translate(66.5 -1247.074)" fill="#121212" stroke="#d3d3d3" stroke-miterlimit="10" stroke-width="2" fill-rule="evenodd"/>
    <path id="Path_120" data-name="Path 120" d="M1150.252,2013.064l4.5,4.5h38.965V1923.49l-5.375-5.375" transform="translate(-126.424 -1433.622)" fill="#121212" stroke="#3eb1c8" stroke-miterlimit="10" stroke-width="2" fill-rule="evenodd"/>
    <path id="Path_133" data-name="Path 133" d="M1108.937,2132.656l4.5,4.5h17.978" transform="translate(-103.394 -1553.214)" fill="#121212" stroke="#3eb1c8" stroke-miterlimit="10" stroke-width="2" fill-rule="evenodd"/>
    <path id="Path_114" data-name="Path 114" d="M1566.234,1831.737h-23.064v168.137h23.064V1831.737Z" transform="translate(-345.45 -1385.472)" fill="#121212" stroke="#d3d3d3" stroke-miterlimit="10" stroke-width="1" fill-rule="evenodd"/>
    <path id="Path_130" data-name="Path 130" d="M987.377,2115.023H943.329v-76.717h44.048v76.717Z" transform="translate(-11.078 -1500.62)" fill="#121212" stroke="#d3d3d3" stroke-miterlimit="10" stroke-width="2" fill-rule="evenodd"/>
    <path id="Path_131" data-name="Path 131" d="M997.171,2115.023H960.9v-76.717h36.273v76.717Z" transform="translate(-20.872 -1500.62)" fill="#121212" stroke="#d3d3d3" stroke-miterlimit="10" stroke-width="1" fill-rule="evenodd"/>
    <path id="Path_127" data-name="Path 127" d="M919.7,1899.67H821.73v-24.286H919.7v24.286Z" transform="translate(56.706 -1409.802)" fill="#121212" stroke="#d3d3d3" stroke-miterlimit="10" stroke-width="2" fill-rule="evenodd"/>
    <path id="Path_134" data-name="Path 134" d="M1050.013,2211.654H736.795v12.838h313.218v-12.838Z" transform="translate(104.051 -1597.25)" fill="#121212" stroke="#d3d3d3" stroke-miterlimit="10" stroke-width="2" fill-rule="evenodd"/>
    <path id="Path_128" data-name="Path 128" d="M919.7,1899.669h-8.519v-14.942H821.727v-9.345h97.866l.107,24.287Z" transform="translate(56.708 -1409.801)" fill="#121212" stroke="#d3d3d3" stroke-miterlimit="10" stroke-width="1" fill-rule="evenodd"/>
    <path id="Path_135" data-name="Path 135" d="M1589.464,2211.652H1444.53v12.839h144.934v-12.839Z" transform="translate(-290.465 -1597.249)" fill="#121212" stroke="#d3d3d3" stroke-miterlimit="10" stroke-width="2" fill-rule="evenodd"/>
    <path id="Path_132" data-name="Path 132" d="M918.848,1583.46q-36.234,52.454-72.468,104.91h0" transform="translate(42.965 -1247.074)" fill="#121212" stroke="#d3d3d3" stroke-miterlimit="10" stroke-width="1" fill-rule="evenodd"/>
    <path id="Path_126" data-name="Path 126" d="M964.807,1583.46q-36.234,52.454-72.468,104.91h0" transform="translate(17.345 -1247.074)" fill="#121212" stroke="#d3d3d3" stroke-miterlimit="10" stroke-width="1" fill-rule="evenodd"/>
    <path id="Path_123" data-name="Path 123" d="M1010.766,1583.46q-36.234,52.454-72.468,104.91h0" transform="translate(-8.274 -1247.074)" fill="#121212" stroke="#d3d3d3" stroke-miterlimit="10" stroke-width="1" fill-rule="evenodd"/>
    <path id="Path_122" data-name="Path 122" d="M1056.725,1583.46q-36.234,52.454-72.467,104.91h0" transform="translate(-33.893 -1247.074)" fill="#121212" stroke="#d3d3d3" stroke-miterlimit="10" stroke-width="1" fill-rule="evenodd"/>
    <path id="Path_121" data-name="Path 121" d="M1102.684,1583.46q-36.234,52.454-72.468,104.91h0" transform="translate(-59.512 -1247.074)" fill="#121212" stroke="#d3d3d3" stroke-miterlimit="10" stroke-width="1" fill-rule="evenodd"/>
    <path id="Path_119" data-name="Path 119" d="M1148.642,1583.46q-36.234,52.454-72.468,104.91h0" transform="translate(-85.13 -1247.074)" fill="#121212" stroke="#d3d3d3" stroke-miterlimit="10" stroke-width="1" fill-rule="evenodd"/>
    <path id="Path_117" data-name="Path 117" d="M1194.6,1583.46q-36.234,52.454-72.468,104.91h0" transform="translate(-110.749 -1247.074)" fill="#121212" stroke="#d3d3d3" stroke-miterlimit="10" stroke-width="1" fill-rule="evenodd"/>
    <path id="Path_115" data-name="Path 115" d="M1240.56,1583.46q-36.234,52.454-72.468,104.91h0" transform="translate(-136.369 -1247.074)" fill="#121212" stroke="#d3d3d3" stroke-miterlimit="10" stroke-width="1" fill-rule="evenodd"/>
    <path id="Path_113" data-name="Path 113" d="M1286.519,1583.46q-36.234,52.454-72.468,104.91h0" transform="translate(-161.988 -1247.074)" fill="#121212" stroke="#d3d3d3" stroke-miterlimit="10" stroke-width="1" fill-rule="evenodd"/>
    <path id="Path_109" data-name="Path 109" d="M1332.478,1583.46q-36.234,52.454-72.467,104.91h0" transform="translate(-187.607 -1247.074)" fill="#121212" stroke="#d3d3d3" stroke-miterlimit="10" stroke-width="1" fill-rule="evenodd"/>
    <path id="Path_110" data-name="Path 110" d="M1333.238,1611.652l-3.168-9.106-56.63,81.92,3.168,9.108,56.63-81.921Z" transform="translate(-195.093 -1257.713)" fill="#121212" stroke="#d3d3d3" stroke-miterlimit="10" stroke-width="2" fill-rule="evenodd"/>
    <path id="Path_118" data-name="Path 118" d="M1099.71,1787.649l-137.93.049,3.168,9.108,137.93-.05-3.168-9.107Z" transform="translate(-21.363 -1360.896)" fill="#121212" stroke="#d3d3d3" stroke-miterlimit="10" stroke-width="2" fill-rule="evenodd"/>
    <path id="Path_111" data-name="Path 111" d="M1039.227,1602.547h-20.811l-56.63,81.92,117.783.008,20.145-.008,56.63-81.92Z" transform="translate(-21.366 -1257.713)" fill="#121212" stroke="#d3d3d3" stroke-miterlimit="10" stroke-width="2" fill-rule="evenodd"/>
    <path id="Path_112" data-name="Path 112" d="M1156.336,1602.555l.006-.01h-7.327l-.006.008-109.784-.007-20.81,0-.831,1.249-25.315,36.622h-.115l-2.855,4.3-23.21,33.573h-.2l-4.108,6.18h.033l-.035.051,7.33,0,.032-.047,36.193,0-.022.031,7.331,0,.019-.028,36.193,0-.009.013,7.33,0,.007-.01,23.381,0,20.145,0,4.267-6.18h0l21.907-31.69h.088q2.133-3.09,4.267-6.181h-.083l21.906-31.689h.171l4.267-6.18Zm-55.121,6.177-21.906,31.689-21.435,0h-14.758l8.619-12.468,13.287-19.221Zm-79.714-.006,20.767,0H1057.7l-9.009,13.032-12.9,18.657-36.194,0Zm-11.892,69.561-36.193,0,21.907-31.69,36.194,0Zm43.52,0-36.193,0,21.907-31.689h36.193l-8.245,11.927Zm43.52,0h-36.193l9.383-13.572,12.524-18.118,36.193,0Zm26.179-37.87-36.193,0,21.906-31.689,36.194,0Z" transform="translate(-21.365 -1257.712)" fill="#121212" stroke="#d3d3d3" stroke-miterlimit="10" stroke-width="2" fill-rule="evenodd"/>
    <path id="Path_107" data-name="Path 107" d="M1339.829,1845.7h9.146v72.125h4.593V1845.7h39.45v72.125h4.593V1845.7h27.618v72.125h4.593V1749.691l-45-65.14-2.791,4.041,10.984,15.9v88.8h-39.45V1729.8l-4.593,6.649v56.843h-9.146v4.593h9.146v43.225h-9.146v4.592Zm85.4-4.592h-27.618v-43.225h27.618v43.225Zm0-47.818h-27.618v-82.152l27.618,39.981v42.171Zm-32.21,47.818h-39.45v-43.225h39.45v43.225Z" transform="translate(-232.101 -1303.425)" fill="#121212" stroke="#3eb1c8" stroke-miterlimit="10" stroke-width="1" fill-rule="evenodd"/>
    <rect id="Rectangle_47" data-name="Rectangle 47" width="38.094" height="94.166" transform="translate(1023.828 485.276)" fill="#121212" stroke="#3eb1c8" stroke-miterlimit="10" stroke-width="2"/>
    <rect id="Rectangle_48" data-name="Rectangle 48" width="18.323" height="94.166" transform="translate(1005.289 485.276)" fill="#121212" stroke="#3eb1c8" stroke-miterlimit="10" stroke-width="2"/>
    <line id="Line_219" data-name="Line 219" x1="56.633" transform="translate(1005.289 544.135)" fill="none" stroke="#3eb1c8" stroke-miterlimit="10" stroke-width="2"/>
    <line id="Line_218" data-name="Line 218" x1="56.633" transform="translate(1005.289 522.942)" fill="none" stroke="#3eb1c8" stroke-miterlimit="10" stroke-width="2"/>
    <path id="Path_129" data-name="Path 129" d="M1112.088,2026.269" transform="translate(-105.15 -1493.911)" fill="#121212" stroke="#d3d3d3" stroke-miterlimit="10" stroke-width="2"/>
    <path id="Path_125" data-name="Path 125" d="M1072.982,1984.719l-4.141,4.141,4.107,4.108" transform="translate(65.988 -1425.08)" fill="none" stroke="#3eb1c8" stroke-miterlimit="10" stroke-width="2" fill-rule="evenodd"/>
    <path id="Path_105" data-name="Path 105" d="M1319.753,1693.339l56.527-81.836h0l56.529,81.835v168.137h15.939V1688.368l-72.468-104.911h0l-72.467,104.911v173.107h15.94V1693.339Z" transform="translate(-212.024 -1247.072)" fill="#121212" stroke="#d3d3d3" stroke-miterlimit="10" stroke-width="2" fill-rule="evenodd"/>
    <path id="Path_136" data-name="Path 136" d="M550.068,459.247l104.621-2.82a26.335,26.335,0,0,1,26.335,26.335h0A26.335,26.335,0,0,1,654.689,509.1H611.97" transform="translate(524.048 55.046)" fill="none" stroke="#3eb1c8" stroke-miterlimit="10" stroke-width="2" stroke-dasharray="7 8" fill-rule="evenodd"/>
    <path id="Path_172" data-name="Path 172" d="M280.794,205.846a53.489,53.489,0,0,0-26.106,6.761,47.41,47.41,0,0,1,0,93.945,53.736,53.736,0,1,0,26.106-100.706Z" transform="translate(1154.316 317.049) rotate(158)" fill="#121212" stroke="#fff" stroke-miterlimit="10" stroke-width="1"/>
  </g>
</svg>
