<svg width="64" height="64" viewBox="0 0 64 64" fill="none" xmlns="http://www.w3.org/2000/svg">
<circle cx="32" cy="32" r="32" fill="url(#paint0_radial)"/>
<path d="M43.6163 36.023L32.9262 25.3331C32.6792 25.086 32.3498 24.9504 31.991 24.9504C31.6394 24.9504 31.3098 25.086 31.0632 25.3331L20.383 36.0128C20.136 36.2601 20 36.5896 20 36.9412C20 37.2928 20.1358 37.6226 20.383 37.8696L21.1696 38.6561C21.4166 38.9032 21.7463 39.0396 22.0979 39.0396C22.4496 39.0396 22.7791 38.9032 23.0263 38.6561L31.9947 29.6878L40.973 38.6665C41.22 38.9133 41.5496 39.0495 41.9014 39.0495C42.253 39.0495 42.5823 38.9133 42.8296 38.6665L43.6163 37.8796C44.1279 37.3678 44.1279 36.5348 43.6163 36.023Z" fill="white"/>
<defs>
<radialGradient id="paint0_radial" cx="0" cy="0" r="1" gradientUnits="userSpaceOnUse" gradientTransform="translate(32 32) rotate(90) scale(32)">
<stop stop-color="#404040"/>
<stop offset="1" stop-color="#131313"/>
</radialGradient>
</defs>
</svg>
